<?xml version="1.0" encoding="utf-8"?>
<!-- Generator: Adobe Illustrator 16.0.0, SVG Export Plug-In . SVG Version: 6.00 Build 0)  -->
<!DOCTYPE svg PUBLIC "-//W3C//DTD SVG 1.1//EN" "http://www.w3.org/Graphics/SVG/1.1/DTD/svg11.dtd">
<svg version="1.1" id="Layer_15_copy_2" xmlns="http://www.w3.org/2000/svg" xmlns:xlink="http://www.w3.org/1999/xlink" x="0px"
	 y="0px" width="720px" height="720px" viewBox="0 0 720 720" enable-background="new 0 0 720 720" xml:space="preserve">
<linearGradient id="SVGID_1_" gradientUnits="userSpaceOnUse" x1="423.625" y1="180.3564" x2="423.625" y2="250.4731" gradientTransform="matrix(0.7108 0.7035 -0.7035 0.7108 356.475 -313.9949)">
	<stop  offset="0" style="stop-color:#FFFFFF"/>
	<stop  offset="0.2801" style="stop-color:#FBFBFB"/>
	<stop  offset="0.443" style="stop-color:#F3F3F4"/>
	<stop  offset="0.5758" style="stop-color:#E7E8E9"/>
	<stop  offset="0.6923" style="stop-color:#D6D8D9"/>
	<stop  offset="0.7983" style="stop-color:#C1C3C5"/>
	<stop  offset="0.8966" style="stop-color:#A7A9AB"/>
	<stop  offset="0.9873" style="stop-color:#8A8C8F"/>
	<stop  offset="1" style="stop-color:#86888A"/>
</linearGradient>
<path fill="url(#SVGID_1_)" d="M468.181,142.299l1.33,8.016c4.151-1.697,53.552-22.942,77.744-21.714
	C544.692,128.625,503.795,127.223,468.181,142.299z"/>
<g>
	<path fill="#FFFFFF" d="M249,402c0,0,17-10,18-13s32,32,32,32s-11,21-12,24s-40,7-40,7l-6-38L249,402z"/>
	<g>
		
			<linearGradient id="SVGID_2_" gradientUnits="userSpaceOnUse" x1="420.5078" y1="452.8008" x2="420.2404" y2="419.6163" gradientTransform="matrix(0.6774 0.688 -0.7126 0.7016 313.1848 -191.4273)">
			<stop  offset="0" style="stop-color:#4A55A5"/>
			<stop  offset="0.0371" style="stop-color:#454F99"/>
			<stop  offset="0.1375" style="stop-color:#384081"/>
			<stop  offset="0.2427" style="stop-color:#2B316A"/>
			<stop  offset="0.3507" style="stop-color:#1F2456"/>
			<stop  offset="0.4622" style="stop-color:#131646"/>
			<stop  offset="0.5783" style="stop-color:#060437"/>
			<stop  offset="0.701" style="stop-color:#00002A"/>
			<stop  offset="0.8347" style="stop-color:#000020"/>
			<stop  offset="1" style="stop-color:#00001C"/>
		</linearGradient>
		<path fill="url(#SVGID_2_)" d="M272.534,365.828l52.169,52.982l-21.22,13.254c-23.299-7.598-36.021-20.523-44.532-45.229
			L272.534,365.828z"/>
		
			<linearGradient id="SVGID_3_" gradientUnits="userSpaceOnUse" x1="223.8257" y1="279.7666" x2="391.4854" y2="279.7666" gradientTransform="matrix(0.7157 0.6984 -0.6984 0.7157 372.2962 -126.7967)">
			<stop  offset="0" style="stop-color:#A7A9AC"/>
			<stop  offset="0.0806" style="stop-color:#8A8C8F"/>
			<stop  offset="0.1692" style="stop-color:#717275"/>
			<stop  offset="0.2596" style="stop-color:#5B5C5E"/>
			<stop  offset="0.3516" style="stop-color:#4A4A4C"/>
			<stop  offset="0.4461" style="stop-color:#3F3F40"/>
			<stop  offset="0.5468" style="stop-color:#383839"/>
			<stop  offset="0.6316" style="stop-color:#3F3E40"/>
			<stop  offset="0.7098" style="stop-color:#4A4A4C"/>
			<stop  offset="0.7854" style="stop-color:#5B5C5E"/>
			<stop  offset="0.8594" style="stop-color:#707174"/>
			<stop  offset="0.9316" style="stop-color:#898B8E"/>
			<stop  offset="1" style="stop-color:#A7A9AC"/>
		</linearGradient>
		<path fill="url(#SVGID_3_)" d="M545.403,217.23c-4.809-0.202-32.114-2.07-52.642-22.073
			c-22.505-21.934-28.866-39.355-29.758-55.326C314.23,194.847,265.427,360.235,265.427,360.235
			c15.086,46.474,65.341,68.22,65.341,68.22C466.555,364.375,522.969,280.461,545.403,217.23z"/>
		
			<linearGradient id="SVGID_4_" gradientUnits="userSpaceOnUse" x1="416.7988" y1="269.8442" x2="484.0695" y2="202.5736" gradientTransform="matrix(0.7108 0.7035 -0.7035 0.7108 356.475 -313.9949)">
			<stop  offset="0" style="stop-color:#4A55A5"/>
			<stop  offset="0.0661" style="stop-color:#454F9A"/>
			<stop  offset="0.4134" style="stop-color:#2C336C"/>
			<stop  offset="0.695" style="stop-color:#151848"/>
			<stop  offset="0.8971" style="stop-color:#00002C"/>
			<stop  offset="1" style="stop-color:#00001C"/>
		</linearGradient>
		<path fill="url(#SVGID_4_)" d="M545.698,216.93c17.716-59.075,11.049-90.143,10.635-92.93
			c-33.907,0.616-64.614,5.85-93.598,15.167c0.691,4.159-2.112,26.182,27.539,55.531
			C517.255,221.399,540.972,216.858,545.698,216.93z"/>
		
			<radialGradient id="SVGID_5_" cx="308.6895" cy="187.9951" r="30.8423" gradientTransform="matrix(0.7157 0.6984 -0.6984 0.7157 372.2962 -126.7967)" gradientUnits="userSpaceOnUse">
			<stop  offset="0" style="stop-color:#FFFFFF"/>
			<stop  offset="0.2256" style="stop-color:#FBFBFB"/>
			<stop  offset="0.3781" style="stop-color:#F2F2F3"/>
			<stop  offset="0.5089" style="stop-color:#E5E6E7"/>
			<stop  offset="0.6276" style="stop-color:#D3D5D6"/>
			<stop  offset="0.7381" style="stop-color:#BCBEC0"/>
			<stop  offset="0.8424" style="stop-color:#A0A3A5"/>
			<stop  offset="0.9401" style="stop-color:#828487"/>
			<stop  offset="1" style="stop-color:#6D6E71"/>
		</radialGradient>
		<circle fill="url(#SVGID_5_)" cx="461.929" cy="223.341" r="30.842"/>
		<path fill="#FFFFFF" d="M439.41,236.701c0,0,7.156,14.744,24.139,12.355c16.983-2.387,22.908-17.288,22.908-17.288
			S459.285,256.962,439.41,236.701z"/>
		
			<radialGradient id="SVGID_6_" cx="310.3306" cy="256.4985" r="26.5437" gradientTransform="matrix(0.7157 0.6984 -0.6984 0.7157 372.2962 -126.7967)" gradientUnits="userSpaceOnUse">
			<stop  offset="0" style="stop-color:#FFFFFF"/>
			<stop  offset="0.2256" style="stop-color:#FBFBFB"/>
			<stop  offset="0.3781" style="stop-color:#F2F2F3"/>
			<stop  offset="0.5089" style="stop-color:#E5E6E7"/>
			<stop  offset="0.6276" style="stop-color:#D3D5D6"/>
			<stop  offset="0.7381" style="stop-color:#BCBEC0"/>
			<stop  offset="0.8424" style="stop-color:#A0A3A5"/>
			<stop  offset="0.9401" style="stop-color:#828487"/>
			<stop  offset="1" style="stop-color:#6D6E71"/>
		</radialGradient>
		<circle fill="url(#SVGID_6_)" cx="415.26" cy="273.515" r="26.543"/>
		<path fill="#FFFFFF" d="M395.88,285.015c0,0,6.159,12.688,20.777,10.631c14.615-2.053,19.716-14.879,19.716-14.879
			S412.984,302.451,395.88,285.015z"/>
		
			<radialGradient id="SVGID_7_" cx="310.5938" cy="316.5039" r="21.5894" gradientTransform="matrix(0.7157 0.6984 -0.6984 0.7157 372.2962 -126.7967)" gradientUnits="userSpaceOnUse">
			<stop  offset="0" style="stop-color:#FFFFFF"/>
			<stop  offset="0.2256" style="stop-color:#FBFBFB"/>
			<stop  offset="0.3781" style="stop-color:#F2F2F3"/>
			<stop  offset="0.5089" style="stop-color:#E5E6E7"/>
			<stop  offset="0.6276" style="stop-color:#D3D5D6"/>
			<stop  offset="0.7381" style="stop-color:#BCBEC0"/>
			<stop  offset="0.8424" style="stop-color:#A0A3A5"/>
			<stop  offset="0.9401" style="stop-color:#828487"/>
			<stop  offset="1" style="stop-color:#6D6E71"/>
		</radialGradient>
		<circle fill="url(#SVGID_7_)" cx="373.542" cy="316.645" r="21.589"/>
		<path fill="#FFFFFF" d="M357.778,325.998c0,0,5.009,10.319,16.899,8.647c11.888-1.67,16.035-12.102,16.035-12.102
			S371.69,340.179,357.778,325.998z"/>
		
			<linearGradient id="SVGID_8_" gradientUnits="userSpaceOnUse" x1="355.249" y1="418.7578" x2="460.4819" y2="358.0016" gradientTransform="matrix(0.7108 0.7035 -0.7035 0.7108 356.475 -313.9949)">
			<stop  offset="0" style="stop-color:#86888A"/>
			<stop  offset="0.0324" style="stop-color:#939598"/>
			<stop  offset="0.1059" style="stop-color:#AEB0B2"/>
			<stop  offset="0.1873" style="stop-color:#C6C8CA"/>
			<stop  offset="0.2772" style="stop-color:#DADBDC"/>
			<stop  offset="0.3792" style="stop-color:#E9EAEB"/>
			<stop  offset="0.5002" style="stop-color:#F4F4F5"/>
			<stop  offset="0.659" style="stop-color:#FCFCFC"/>
			<stop  offset="1" style="stop-color:#FFFFFF"/>
		</linearGradient>
		<path fill="url(#SVGID_8_)" d="M458.405,145.873l1.795,10.826c0,0-128.2,48.301-176.216,194.396
			C283.984,351.094,304.881,217.138,458.405,145.873z"/>
		<g>
			
				<linearGradient id="SVGID_9_" gradientUnits="userSpaceOnUse" x1="406.8496" y1="374.8857" x2="478.9561" y2="374.8857" gradientTransform="matrix(0.4852 0.7666 -0.6906 0.4371 415.9355 -61.5415)">
				<stop  offset="0" style="stop-color:#00001C"/>
				<stop  offset="0.1404" style="stop-color:#000021"/>
				<stop  offset="0.2711" style="stop-color:#00002B"/>
				<stop  offset="0.3981" style="stop-color:#080739"/>
				<stop  offset="0.5228" style="stop-color:#161949"/>
				<stop  offset="0.6458" style="stop-color:#22275B"/>
				<stop  offset="0.7676" style="stop-color:#2F3671"/>
				<stop  offset="0.8859" style="stop-color:#3C4589"/>
				<stop  offset="1" style="stop-color:#4A55A5"/>
			</linearGradient>
			<path fill="url(#SVGID_9_)" d="M424.099,371.925l-92.101,56.494c0,0,13.052,25.594-16.607,76.432
				C315.391,504.851,430.029,483.984,424.099,371.925z"/>
			<path fill="#6D6E71" d="M423.293,370.652l4.288,0.152c0,0,23.091,111.021-117.016,138.018l4.016-5.247
				C314.581,503.575,425.547,488.49,423.293,370.652z"/>
		</g>
		<g>
			
				<linearGradient id="SVGID_10_" gradientUnits="userSpaceOnUse" x1="599.0576" y1="389.2881" x2="671.166" y2="389.2881" gradientTransform="matrix(-0.7971 -0.4332 -0.3904 0.7181 906.9805 316.3357)">
				<stop  offset="0" style="stop-color:#00001C"/>
				<stop  offset="0.1404" style="stop-color:#000021"/>
				<stop  offset="0.2711" style="stop-color:#00002B"/>
				<stop  offset="0.3981" style="stop-color:#080739"/>
				<stop  offset="0.5228" style="stop-color:#161949"/>
				<stop  offset="0.6458" style="stop-color:#22275B"/>
				<stop  offset="0.7676" style="stop-color:#2F3671"/>
				<stop  offset="0.8859" style="stop-color:#3C4589"/>
				<stop  offset="1" style="stop-color:#4A55A5"/>
			</linearGradient>
			<path fill="url(#SVGID_10_)" d="M315.064,264.064l-50.259,95.646c0,0-26.405-11.324-75.162,21.643
				C189.643,381.354,202.858,265.583,315.064,264.064z"/>
			<path fill="#6D6E71" d="M316.385,264.785l-0.436-4.27c0,0-112.308-15.671-129.949,125.917l4.97-4.354
				C190.97,382.078,198.656,270.353,316.385,264.785z"/>
		</g>
		
			<linearGradient id="SVGID_11_" gradientUnits="userSpaceOnUse" x1="252.2666" y1="498.9932" x2="338.3948" y2="349.8148" gradientTransform="matrix(0.6805 0.831 -0.7775 0.7209 337.4252 -86.7252)">
			<stop  offset="0" style="stop-color:#FFF680"/>
			<stop  offset="0.0055" style="stop-color:#FFF47E"/>
			<stop  offset="0.1028" style="stop-color:#FFE25B"/>
			<stop  offset="0.2022" style="stop-color:#FFD63C"/>
			<stop  offset="0.3032" style="stop-color:#FFCD23"/>
			<stop  offset="0.4069" style="stop-color:#FEC812"/>
			<stop  offset="0.5174" style="stop-color:#FDC70C"/>
			<stop  offset="0.8508" style="stop-color:#F15A29"/>
			<stop  offset="1" style="stop-color:#BE1E2D"/>
		</linearGradient>
		<path fill="url(#SVGID_11_)" d="M259.607,395.906c0,0-14.221,7.354-38.326,8.209c-24.106,0.85-35.111,8.094-36.177,23.551
			c-1.062,15.459,4.761-1.879,15.889-5.701c11.129-3.82,17.92,6.221,3.64,11.867c-14.284,5.645-49.335,15.447-50.278,34.33
			c-0.942,18.881-0.64,27.436-0.578,29.148c0.06,1.711,16.224-41.695,27.958-28.402c11.734,13.293-5.762,19.049-12.009,24.41
			c-6.248,5.363-4.701,3.594-12.253,17.568c-7.552,13.973-13.797,19.336-18.558,21.215c-4.761,1.883-7.914,3.707-7.914,3.707
			s19.465,4.455,25.592-4.33c6.125-8.785,5.459-27.605,21.53-28.174c6.43-0.23-2.97,6.957-4.52,8.727
			c-1.546,1.766-4.399,12.146-2.61,17.227c1.79,5.076,1.366-6.902,17.377-9.182c16.009-2.279,20.831-2.451,25.227-14.6
			c4.398-12.148,13.314-33.023,18.076-34.906c4.757-1.883,11.128-3.818,11.25-0.398c0.12,3.424-17.438,7.471-16.893,22.871
			c0.543,15.402,2.212,17.059,2.212,17.059s-3.517-8.445,9.095-15.742c12.615-7.301,11.19-2.111,25.23-14.6
			c14.04-12.488,28.08-24.98,29.385-33.594c1.307-8.613,1.123-13.748,1.123-13.748l-9.399,7.188l-1.85-6.789l-12.554,9.012
			l4.397-12.148l-18.922,10.951l10.585-19.225l-7.915,3.705l4.519-8.725l-15.89,5.701l10.828-12.379l-8.036,0.287L259.607,395.906z"
			/>
		<g>
			<path d="M225.568,274.789l-1.604,1.821c-0.04-0.024-0.09-0.033-0.149-0.027c-0.059,0.007-0.123,0.046-0.191,0.115
				c-0.544,0.368-0.995,0.762-1.354,1.184c-0.357,0.422-0.674,0.868-0.95,1.339c-0.274,0.47-0.513,0.969-0.713,1.497
				c-0.2,0.529-0.408,1.074-0.627,1.631c-0.165,0.096-0.338,0.167-0.516,0.212c-0.178,0.047-0.363,0.069-0.554,0.067
				c-0.191-0.002-0.382-0.018-0.571-0.046c-0.189-0.029-0.399-0.056-0.632-0.082c-0.48-0.118-0.969-0.28-1.465-0.488
				c-0.496-0.209-0.989-0.457-1.479-0.744c-0.49-0.288-0.958-0.604-1.403-0.947c-0.443-0.344-0.861-0.697-1.251-1.063
				c-0.101-0.251-0.175-0.521-0.225-0.812c-0.05-0.29-0.066-0.588-0.052-0.895c0.016-0.308,0.076-0.621,0.184-0.944
				c0.105-0.323,0.285-0.628,0.539-0.92c0.125-0.118,0.258-0.205,0.399-0.26c0.142-0.054,0.293-0.089,0.453-0.105
				c0.16-0.015,0.325-0.015,0.493,0.002c0.17,0.017,0.339,0.033,0.508,0.049c0.168,0.016,0.34,0.042,0.513,0.074
				s0.344,0.058,0.513,0.075c0.169,0.016,0.335,0.025,0.5,0.025c0.164,0,0.334-0.031,0.508-0.093
				c0.676-0.263,1.337-0.618,1.982-1.063c0.646-0.444,1.246-0.951,1.799-1.521c0.554-0.567,1.047-1.199,1.481-1.892
				c0.434-0.693,0.777-1.42,1.029-2.178c0.087-0.333,0.157-0.676,0.212-1.029c0.056-0.353,0.071-0.707,0.048-1.064
				c-0.024-0.357-0.088-0.704-0.193-1.041c-0.104-0.336-0.28-0.645-0.528-0.928c-0.253-0.175-0.529-0.337-0.827-0.485
				c-0.298-0.147-0.612-0.256-0.942-0.325c-0.329-0.07-0.65-0.086-0.96-0.049c-0.312,0.038-0.595,0.16-0.854,0.365
				c-0.224,0.336-0.481,0.646-0.771,0.928c-0.29,0.284-0.587,0.556-0.891,0.817s-0.612,0.506-0.925,0.735
				c-0.313,0.228-0.604,0.457-0.875,0.682c-0.502,0.529-1.015,1.053-1.539,1.57c-0.522,0.517-1.056,1.028-1.6,1.533
				c-0.544,0.506-1.109,0.978-1.695,1.417c-0.588,0.438-1.196,0.844-1.827,1.216c-0.134-0.051-0.267-0.06-0.396-0.026
				c-0.129,0.034-0.251,0.079-0.366,0.135c-0.116,0.057-0.236,0.109-0.362,0.159c-0.125,0.05-0.263,0.086-0.413,0.107
				c-0.243-0.005-0.473,0.011-0.688,0.05c-0.215,0.039-0.422,0.076-0.621,0.11c-0.198,0.035-0.404,0.058-0.618,0.07
				c-0.213,0.012-0.439-0.011-0.68-0.069c-0.827-0.183-1.588-0.479-2.283-0.886c-0.695-0.408-1.315-0.896-1.861-1.463
				c-0.547-0.568-1.01-1.196-1.389-1.886c-0.379-0.688-0.66-1.39-0.847-2.104c-0.026-0.235-0.065-0.484-0.117-0.749
				c-0.052-0.263-0.113-0.533-0.185-0.809c-0.072-0.275-0.145-0.552-0.216-0.827c-0.072-0.275-0.12-0.557-0.143-0.846
				c0.108-0.184,0.187-0.377,0.237-0.582c0.052-0.203,0.092-0.413,0.122-0.629c0.03-0.215,0.062-0.431,0.091-0.646
				c0.031-0.216,0.086-0.438,0.164-0.666c0.081-0.42,0.205-0.829,0.369-1.227c0.165-0.397,0.354-0.781,0.57-1.149
				s0.455-0.729,0.719-1.083c0.262-0.354,0.537-0.707,0.827-1.06c0.288-0.353,0.583-0.702,0.882-1.049
				c0.3-0.346,0.591-0.69,0.874-1.032c0.283-0.343,0.551-0.693,0.804-1.054c0.252-0.36,0.477-0.731,0.672-1.11
				c0.002-0.191,0.05-0.39,0.144-0.596c0.093-0.206,0.212-0.397,0.356-0.574c0.145-0.176,0.307-0.334,0.486-0.478
				c0.18-0.141,0.364-0.28,0.553-0.417c0.102-0.077,0.208-0.119,0.319-0.121c0.112-0.003,0.218,0.004,0.317,0.021
				c0.1,0.018,0.203,0.03,0.309,0.037c0.105,0.007,0.219-0.022,0.34-0.088c0.579,0.092,1.127,0.234,1.645,0.428
				c0.519,0.195,1.027,0.417,1.524,0.667c0.499,0.251,0.99,0.526,1.475,0.823c0.484,0.299,0.973,0.591,1.463,0.878
				c0.181,0.162,0.353,0.324,0.517,0.489c0.165,0.165,0.307,0.345,0.427,0.539s0.194,0.396,0.223,0.604
				c0.028,0.21-0.023,0.427-0.155,0.65c-0.117,0.482-0.271,0.872-0.461,1.172c-0.189,0.301-0.416,0.546-0.679,0.736
				c-0.262,0.19-0.55,0.33-0.864,0.42c-0.314,0.091-0.645,0.151-0.992,0.18c-0.348,0.03-0.706,0.046-1.078,0.047
				c-0.372,0.003-0.742,0.013-1.109,0.03c-0.367,0.019-0.727,0.056-1.075,0.111c-0.349,0.057-0.688,0.154-1.015,0.291
				c-0.145,0.246-0.311,0.485-0.502,0.715c-0.191,0.231-0.382,0.463-0.572,0.694c-0.191,0.232-0.387,0.46-0.588,0.687
				c-0.201,0.226-0.396,0.454-0.588,0.686c-0.189,0.231-0.365,0.472-0.526,0.721c-0.159,0.251-0.291,0.509-0.394,0.778
				c-0.104,0.27-0.183,0.546-0.239,0.829c-0.056,0.283-0.078,0.579-0.066,0.888c0.008,0.361,0.08,0.707,0.217,1.034
				c0.138,0.328,0.329,0.633,0.576,0.915c0.247,0.283,0.539,0.522,0.876,0.721c0.338,0.198,0.71,0.347,1.117,0.448
				c0.487,0.012,0.923-0.049,1.303-0.184c0.381-0.133,0.738-0.322,1.073-0.565c0.335-0.243,0.655-0.529,0.958-0.859
				c0.304-0.331,0.621-0.659,0.951-0.988c0.27-0.226,0.538-0.474,0.806-0.742c0.268-0.27,0.555-0.548,0.86-0.836
				c0.307-0.287,0.614-0.566,0.924-0.838c0.311-0.271,0.634-0.528,0.969-0.771c0.349-0.455,0.729-0.87,1.142-1.247
				c0.414-0.375,0.849-0.718,1.304-1.027c0.457-0.31,0.932-0.58,1.426-0.813c0.492-0.231,0.982-0.411,1.469-0.539
				c0.199-0.104,0.41-0.171,0.635-0.204c0.227-0.033,0.459-0.054,0.698-0.065c0.239-0.01,0.479-0.021,0.719-0.031
				s0.472-0.019,0.694-0.026c0.445,0.179,0.906,0.366,1.381,0.563c0.476,0.197,0.938,0.413,1.391,0.65
				c0.451,0.238,0.873,0.526,1.265,0.866s0.729,0.757,1.016,1.254c0.314,0.542,0.605,1.111,0.874,1.708
				c0.268,0.597,0.48,1.216,0.64,1.858c0.159,0.644,0.245,1.305,0.258,1.985s-0.088,1.37-0.306,2.066
				c-0.108,0.513-0.257,1.024-0.445,1.532c-0.188,0.507-0.393,0.999-0.615,1.473c-0.223,0.474-0.465,0.942-0.724,1.408
				C226.094,273.882,225.832,274.34,225.568,274.789z"/>
			<path d="M237.78,256.197c-0.131,0.073-0.271,0.154-0.418,0.243c-0.148,0.089-0.295,0.179-0.443,0.268
				c-0.147,0.09-0.299,0.176-0.455,0.256c-0.156,0.083-0.334,0.127-0.535,0.134c-0.218,0.025-0.445,0.017-0.681-0.025
				c-0.237-0.041-0.462-0.12-0.675-0.238c-0.215-0.117-0.413-0.269-0.597-0.455c-0.183-0.186-0.339-0.402-0.465-0.648
				c-0.108-0.197-0.187-0.392-0.236-0.582c-0.048-0.191-0.067-0.379-0.059-0.564c0.01-0.185,0.036-0.37,0.079-0.557
				c0.044-0.185,0.107-0.369,0.193-0.548c0.086-0.178,0.171-0.358,0.256-0.538c0.086-0.179,0.176-0.362,0.269-0.551
				c0.094-0.188,0.18-0.368,0.257-0.538c0.077-0.17,0.137-0.349,0.182-0.535l-5.438-5.379c-0.068-0.03-0.132-0.057-0.191-0.08
				s-0.115-0.042-0.166-0.057c-0.051-0.016-0.101-0.013-0.15,0.005c-0.207-0.159-0.432-0.335-0.674-0.527s-0.472-0.405-0.69-0.64
				s-0.421-0.479-0.606-0.732c-0.186-0.252-0.342-0.502-0.469-0.75c-0.534-0.365-1.026-0.757-1.479-1.176
				c-0.451-0.419-0.903-0.829-1.354-1.231c-0.451-0.402-0.918-0.779-1.401-1.129c-0.482-0.351-1.03-0.632-1.642-0.844
				c-0.326,0.248-0.652,0.486-0.979,0.716c-0.326,0.231-0.694,0.479-1.104,0.746c-0.231,0.076-0.433,0.101-0.601,0.074
				c-0.169-0.028-0.33-0.071-0.483-0.133c-0.152-0.061-0.302-0.127-0.447-0.197c-0.146-0.069-0.311-0.109-0.495-0.119
				c-0.073-0.165-0.179-0.312-0.318-0.441c-0.139-0.128-0.286-0.257-0.442-0.385c-0.155-0.128-0.295-0.274-0.418-0.438
				c-0.124-0.162-0.207-0.36-0.25-0.594c-0.074-0.198-0.12-0.394-0.136-0.585c-0.015-0.191-0.001-0.372,0.043-0.542
				s0.116-0.336,0.22-0.5c0.103-0.163,0.211-0.322,0.322-0.477s0.244-0.308,0.396-0.455c0.154-0.149,0.309-0.297,0.462-0.445
				c0.153-0.148,0.303-0.301,0.448-0.458c0.145-0.156,0.281-0.304,0.41-0.442c0.648-0.595,1.281-1.244,1.9-1.946
				c0.619-0.702,1.238-1.405,1.857-2.108c0.619-0.702,1.223-1.379,1.81-2.03c0.587-0.651,1.175-1.207,1.761-1.665l-0.098-0.575
				c0.211-0.193,0.46-0.381,0.745-0.569c0.287-0.186,0.57-0.327,0.853-0.422c0.086,0.048,0.178,0.043,0.276-0.011
				c0.099-0.054,0.192-0.136,0.279-0.249c0.089-0.113,0.163-0.228,0.226-0.349c0.063-0.119,0.109-0.229,0.139-0.333
				c0.314-0.096,0.637-0.233,0.965-0.413c0.329-0.181,0.67-0.365,1.023-0.555c0.354-0.188,0.703-0.357,1.05-0.504
				s0.687-0.244,1.021-0.291c0.151,0.012,0.314-0.007,0.488-0.056s0.349-0.089,0.523-0.121c0.175-0.031,0.342-0.054,0.5-0.069
				c0.159-0.015,0.316,0.034,0.472,0.146c0.721-0.01,1.45,0.1,2.188,0.333s1.454,0.557,2.149,0.975s1.347,0.918,1.956,1.498
				c0.608,0.581,1.16,1.197,1.654,1.849c0.376,0.607,0.654,1.229,0.838,1.867c0.184,0.64,0.305,1.286,0.363,1.936
				c0.058,0.652,0.074,1.306,0.049,1.96c-0.025,0.655-0.067,1.328-0.125,2.017c-0.161,0.142-0.256,0.295-0.283,0.464
				c-0.027,0.169-0.047,0.345-0.056,0.53c-0.01,0.185-0.028,0.379-0.054,0.581c-0.026,0.202-0.127,0.399-0.305,0.59
				c-0.103,0.39-0.235,0.751-0.399,1.084c-0.163,0.333-0.36,0.66-0.591,0.979c-0.231,0.319-0.475,0.626-0.733,0.921
				c-0.256,0.295-0.522,0.583-0.797,0.86c-0.274,0.278-0.553,0.563-0.835,0.85c-0.283,0.288-0.557,0.582-0.822,0.886
				c-0.265,0.305-0.509,0.619-0.73,0.946c-0.223,0.327-0.42,0.67-0.59,1.028c0.348,0.323,0.72,0.644,1.118,0.964
				c0.397,0.32,0.82,0.657,1.271,1.008c0.137,0.096,0.29,0.123,0.456,0.084c0.166-0.04,0.339-0.105,0.521-0.196
				c0.181-0.091,0.366-0.194,0.554-0.311c0.188-0.116,0.374-0.202,0.557-0.26c0.249-0.06,0.479-0.152,0.693-0.278
				c0.213-0.125,0.421-0.271,0.625-0.439c0.202-0.167,0.397-0.35,0.583-0.551c0.185-0.199,0.369-0.399,0.555-0.6
				c0.186-0.198,0.376-0.395,0.569-0.587c0.194-0.191,0.401-0.363,0.622-0.514c0.221-0.151,0.46-0.268,0.716-0.354
				c0.257-0.085,0.52-0.132,0.787-0.144c0.255,0.075,0.506,0.187,0.755,0.337c0.249,0.15,0.478,0.321,0.687,0.515
				c0.208,0.193,0.397,0.417,0.565,0.67c0.17,0.253,0.317,0.52,0.445,0.8c0,0.419-0.087,0.8-0.258,1.142
				c-0.172,0.342-0.39,0.673-0.654,0.993c-0.265,0.32-0.555,0.633-0.869,0.938c-0.316,0.306-0.602,0.631-0.856,0.977
				c-1.19,1.319-2.386,2.644-3.585,3.972S238.956,254.929,237.78,256.197z M232.929,238.372c0.484-0.488,0.96-1.018,1.424-1.589
				c0.465-0.57,0.869-1.173,1.214-1.807c0.345-0.633,0.601-1.293,0.768-1.979c0.167-0.685,0.188-1.361,0.062-2.027
				c-0.098-0.381-0.242-0.749-0.432-1.103c-0.189-0.353-0.415-0.676-0.678-0.968c-0.263-0.292-0.553-0.537-0.87-0.734
				c-0.318-0.197-0.654-0.331-1.009-0.401c-0.389-0.069-0.767-0.088-1.135-0.059c-0.367,0.031-0.729,0.107-1.086,0.23
				c-0.355,0.122-0.701,0.278-1.038,0.467c-0.337,0.189-0.66,0.398-0.97,0.628c-0.311,0.229-0.619,0.484-0.927,0.765
				s-0.604,0.564-0.886,0.851c-0.283,0.288-0.557,0.575-0.822,0.862c-0.266,0.286-0.521,0.56-0.762,0.82
				c-0.306,0.331-0.576,0.622-0.809,0.874c-0.234,0.252-0.48,0.517-0.738,0.795l6.657,6.413L232.929,238.372z"/>
			<path d="M279.544,220.091c-0.243,0.017-0.48,0.066-0.711,0.146c-0.23,0.081-0.455,0.171-0.673,0.27
				c-0.218,0.1-0.427,0.214-0.625,0.344c-0.198,0.129-0.4,0.254-0.604,0.373c-0.205,0.119-0.41,0.24-0.615,0.358
				c-0.205,0.121-0.418,0.217-0.639,0.29c-0.221,0.074-0.446,0.129-0.678,0.166c-0.229,0.037-0.477,0.028-0.738-0.027
				c-0.203-0.008-0.407-0.038-0.61-0.09c-0.203-0.051-0.392-0.133-0.565-0.247c-0.172-0.113-0.322-0.256-0.449-0.428
				c-0.126-0.171-0.24-0.379-0.343-0.624c-0.181-0.449-0.233-0.868-0.161-1.254c0.073-0.388,0.206-0.758,0.4-1.11
				c0.194-0.354,0.416-0.697,0.666-1.029c0.25-0.333,0.479-0.666,0.685-1c-0.02,0.014-0.042,0-0.068-0.04s-0.055-0.084-0.087-0.134
				c-0.032-0.05-0.064-0.099-0.098-0.148c-0.032-0.05-0.065-0.078-0.098-0.085c-0.19-0.073-0.363-0.145-0.521-0.212
				s-0.313-0.12-0.467-0.162c-0.153-0.041-0.31-0.052-0.468-0.034c-0.158,0.017-0.326,0.084-0.505,0.202
				c-0.832,0.374-1.647,0.771-2.447,1.194c-0.8,0.423-1.573,0.885-2.32,1.387c-0.748,0.503-1.475,1.048-2.18,1.635
				c-0.706,0.588-1.371,1.228-1.996,1.918c-0.021,0.098-0.021,0.205-0.003,0.32c0.019,0.116,0.059,0.231,0.12,0.347
				c0.062,0.116,0.134,0.238,0.218,0.366c0.085,0.13,0.175,0.247,0.272,0.354c0.131,0.027,0.269,0.053,0.409,0.072
				c0.141,0.022,0.291,0.023,0.448,0.005c0.158-0.019,0.313-0.049,0.47-0.094c0.154-0.044,0.319-0.095,0.494-0.153
				c0.175-0.057,0.348-0.107,0.519-0.148s0.338-0.078,0.499-0.114c0.162-0.034,0.324-0.056,0.489-0.063
				c0.165-0.009,0.318,0.011,0.462,0.058c0.282,0.128,0.508,0.313,0.681,0.555c0.171,0.242,0.304,0.509,0.396,0.802
				s0.16,0.602,0.202,0.929c0.043,0.325,0.076,0.635,0.1,0.933c-0.063,0.381-0.245,0.74-0.548,1.078
				c-0.302,0.34-0.668,0.635-1.099,0.887c-0.376,0.161-0.74,0.35-1.094,0.566c-0.354,0.217-0.707,0.446-1.058,0.689
				c-0.351,0.244-0.697,0.492-1.042,0.744c-0.344,0.253-0.69,0.493-1.037,0.719c-0.348,0.227-0.708,0.434-1.081,0.621
				s-0.755,0.351-1.144,0.491c-0.39,0.141-0.783,0.243-1.182,0.304c-0.398,0.063-0.816,0.081-1.257,0.057
				c-0.21-0.061-0.382-0.183-0.515-0.365c-0.133-0.182-0.251-0.395-0.354-0.639s-0.19-0.499-0.264-0.762
				c-0.073-0.263-0.154-0.507-0.244-0.732c0.063-0.381,0.17-0.748,0.321-1.102s0.393-0.667,0.724-0.939
				c0.133-0.057,0.217-0.133,0.254-0.229c0.037-0.095,0.055-0.198,0.052-0.311c-0.002-0.111-0.007-0.229-0.016-0.35
				c-0.01-0.122,0.001-0.249,0.028-0.379c-0.014-0.671-0.087-1.359-0.222-2.063c-0.134-0.704-0.275-1.397-0.424-2.08
				c-0.147-0.681-0.278-1.359-0.394-2.034s-0.156-1.334-0.123-1.978c-0.139-0.645-0.27-1.29-0.391-1.931
				c-0.122-0.643-0.24-1.288-0.352-1.936c-0.111-0.649-0.245-1.296-0.399-1.946c-0.154-0.648-0.334-1.302-0.538-1.962
				c-0.142-0.218-0.254-0.442-0.334-0.674c-0.08-0.23-0.144-0.458-0.19-0.682s-0.095-0.448-0.142-0.672s-0.118-0.431-0.215-0.624
				c-0.244,0.019-0.475,0.055-0.691,0.112c-0.218,0.058-0.431,0.132-0.639,0.225c-0.208,0.094-0.418,0.195-0.629,0.305
				c-0.211,0.11-0.42,0.226-0.624,0.344c-0.205,0.121-0.418,0.238-0.64,0.354c-0.221,0.116-0.441,0.224-0.658,0.324
				c-0.219,0.099-0.441,0.181-0.668,0.244c-0.229,0.065-0.463,0.104-0.707,0.123c-0.256-0.087-0.473-0.237-0.65-0.445
				c-0.179-0.208-0.354-0.455-0.525-0.74c-0.172-0.284-0.328-0.578-0.471-0.882c-0.141-0.304-0.306-0.578-0.494-0.824
				c0.029-0.386,0.146-0.739,0.351-1.056c0.204-0.316,0.449-0.612,0.738-0.885c0.288-0.273,0.608-0.531,0.959-0.774
				c0.351-0.244,0.698-0.491,1.043-0.744c0.356-0.233,0.711-0.472,1.062-0.715c0.352-0.242,0.703-0.494,1.057-0.753
				c0.355-0.26,0.712-0.515,1.073-0.764c0.36-0.249,0.723-0.486,1.086-0.71c0.364-0.223,0.736-0.422,1.115-0.6
				c0.38-0.176,0.763-0.328,1.148-0.452c0.386-0.125,0.78-0.212,1.186-0.265c0.404-0.052,0.812-0.069,1.218-0.053
				c0.262,0.141,0.519,0.284,0.77,0.431c0.252,0.148,0.504,0.295,0.756,0.442c0.251,0.147,0.496,0.306,0.734,0.476
				s0.487,0.368,0.748,0.593c0.496,0.414,1,0.806,1.512,1.179c0.513,0.373,1.038,0.745,1.577,1.115
				c0.538,0.37,1.09,0.739,1.655,1.105c0.564,0.367,1.111,0.76,1.64,1.18c0.581,0.413,1.165,0.832,1.753,1.254
				c0.587,0.424,1.168,0.837,1.742,1.239c0.575,0.404,1.16,0.801,1.754,1.19c0.594,0.392,1.182,0.75,1.764,1.078
				c0.274,0.161,0.545,0.325,0.809,0.492c0.265,0.167,0.529,0.333,0.795,0.5c0.264,0.167,0.523,0.336,0.778,0.51
				c0.255,0.173,0.517,0.327,0.788,0.461c0.271,0.135,0.544,0.247,0.815,0.339c0.272,0.092,0.554,0.155,0.847,0.189
				c0.292,0.037,0.588,0.035,0.887-0.005c0.3-0.04,0.617-0.127,0.954-0.262c0.322,0.016,0.603,0.109,0.841,0.279
				c0.238,0.17,0.444,0.39,0.619,0.657c0.175,0.269,0.328,0.558,0.46,0.867c0.132,0.311,0.249,0.631,0.351,0.96
				c-0.022,0.27-0.086,0.53-0.189,0.782c-0.105,0.252-0.24,0.489-0.407,0.71c-0.166,0.222-0.345,0.437-0.533,0.646
				c-0.19,0.208-0.398,0.408-0.627,0.6c-0.229,0.192-0.464,0.374-0.706,0.545c-0.241,0.172-0.482,0.344-0.724,0.516
				c-0.242,0.172-0.482,0.336-0.721,0.491C279.972,219.77,279.749,219.929,279.544,220.091z M263.644,213.744l3.365-2.324
				l-6.604-4.265l0.941,7.492L263.644,213.744z"/>
			<path d="M304.854,209.133c-0.962,0.262-1.931,0.438-2.903,0.527c-0.973,0.091-1.98,0.118-3.023,0.081
				c-0.144-0.124-0.315-0.203-0.515-0.234c-0.199-0.03-0.397-0.042-0.597-0.035s-0.404,0.011-0.618,0.01
				c-0.214,0-0.411-0.045-0.592-0.132c-0.669-0.117-1.304-0.296-1.903-0.537c-0.6-0.243-1.176-0.524-1.728-0.846
				c-0.552-0.321-1.091-0.678-1.618-1.071c-0.527-0.392-1.057-0.809-1.588-1.251c-0.252-0.288-0.489-0.607-0.712-0.955
				c-0.222-0.349-0.433-0.715-0.629-1.099c-0.198-0.383-0.398-0.776-0.604-1.182c-0.205-0.405-0.403-0.813-0.598-1.222
				c-0.312-0.744-0.599-1.51-0.862-2.297c-0.264-0.787-0.486-1.586-0.672-2.401c-0.186-0.813-0.324-1.638-0.415-2.472
				c-0.092-0.834-0.106-1.663-0.044-2.49c0.11-0.616,0.258-1.232,0.443-1.85c0.186-0.617,0.41-1.229,0.674-1.837
				s0.563-1.209,0.895-1.802c0.332-0.593,0.691-1.16,1.08-1.698c0.539-0.539,1.113-1.054,1.72-1.544
				c0.606-0.489,1.252-0.94,1.935-1.356c0.684-0.416,1.392-0.776,2.125-1.084c0.733-0.308,1.496-0.55,2.287-0.728
				c0.459,0.016,0.911,0.001,1.36-0.043c0.448-0.044,0.899-0.083,1.353-0.117c0.454-0.032,0.904-0.053,1.354-0.061
				c0.448-0.007,0.903,0.035,1.362,0.125c0.172-0.01,0.314-0.085,0.43-0.226c0.113-0.14,0.214-0.301,0.301-0.482
				c0.088-0.182,0.173-0.368,0.256-0.561c0.083-0.192,0.191-0.35,0.324-0.472c0.178-0.138,0.363-0.234,0.559-0.29
				c0.193-0.055,0.391-0.081,0.594-0.077c0.202,0.004,0.405,0.028,0.607,0.069c0.204,0.042,0.403,0.092,0.6,0.148
				c0.495,0.554,0.938,1.172,1.326,1.851c0.389,0.68,0.732,1.389,1.027,2.126c0.297,0.738,0.526,1.498,0.688,2.282
				c0.161,0.785,0.278,1.566,0.351,2.345c-0.05,0.219-0.119,0.394-0.211,0.526c-0.092,0.133-0.208,0.25-0.349,0.349
				c-0.142,0.1-0.289,0.196-0.445,0.288s-0.312,0.204-0.467,0.333c-0.178,0.138-0.368,0.224-0.569,0.256
				c-0.202,0.034-0.4,0.041-0.596,0.021c-0.195-0.02-0.394-0.063-0.592-0.132c-0.2-0.067-0.391-0.146-0.572-0.233
				c-0.399-0.638-0.864-1.159-1.396-1.564c-0.531-0.403-1.104-0.73-1.718-0.979c-0.615-0.25-1.265-0.417-1.948-0.504
				c-0.684-0.086-1.373-0.121-2.069-0.103c-0.8,0.155-1.531,0.381-2.193,0.675c-0.663,0.294-1.254,0.666-1.775,1.112
				c-0.521,0.447-0.986,0.949-1.394,1.505c-0.407,0.558-0.756,1.176-1.045,1.855c-0.32,0.59-0.546,1.234-0.679,1.933
				c-0.131,0.699-0.179,1.425-0.14,2.178c0.037,0.752,0.143,1.519,0.315,2.298c0.174,0.782,0.404,1.548,0.693,2.301
				c0.304,0.722,0.659,1.376,1.065,1.961c0.406,0.586,0.851,1.121,1.334,1.604c0.483,0.483,1.006,0.916,1.565,1.296
				c0.562,0.382,1.151,0.74,1.771,1.075c0.354,0.152,0.727,0.266,1.118,0.342c0.391,0.077,0.788,0.119,1.193,0.127
				c0.404,0.009,0.813-0.008,1.225-0.052s0.821-0.111,1.228-0.205c0.407-0.092,0.813-0.209,1.215-0.35s0.802-0.293,1.195-0.457
				c0.395-0.164,0.774-0.335,1.14-0.513c0.363-0.178,0.714-0.364,1.048-0.557c0.021-0.082,0.062-0.146,0.121-0.192
				c0.344-0.095,0.652-0.234,0.926-0.419c0.275-0.184,0.517-0.389,0.728-0.612c0.21-0.225,0.399-0.473,0.567-0.745
				c0.168-0.272,0.336-0.545,0.504-0.818c0.169-0.272,0.337-0.544,0.505-0.817c0.169-0.272,0.356-0.521,0.567-0.746
				c0.21-0.224,0.447-0.426,0.71-0.607c0.263-0.18,0.578-0.321,0.943-0.425c0.278,0.079,0.539,0.194,0.782,0.348
				c0.242,0.153,0.465,0.346,0.672,0.574c0.205,0.229,0.4,0.481,0.584,0.756c0.184,0.274,0.35,0.586,0.498,0.937
				c-0.059,0.547-0.203,1.069-0.431,1.563c-0.229,0.495-0.493,0.977-0.792,1.446c-0.302,0.469-0.63,0.93-0.985,1.381
				c-0.356,0.451-0.704,0.913-1.041,1.382c-0.482,0.346-1.005,0.679-1.569,1.002c-0.565,0.324-1.144,0.627-1.734,0.91
				c-0.592,0.283-1.188,0.554-1.786,0.815C306.002,208.63,305.419,208.883,304.854,209.133z"/>
			<path d="M325.525,203.05c-0.298-0.111-0.591-0.229-0.878-0.352c-0.288-0.125-0.617-0.25-0.988-0.376
				c-0.139-0.176-0.26-0.371-0.367-0.586s-0.186-0.445-0.235-0.69c-0.05-0.244-0.071-0.498-0.063-0.762
				c0.008-0.263,0.046-0.506,0.118-0.728c0.105-0.345,0.274-0.607,0.505-0.787c0.23-0.18,0.501-0.327,0.81-0.445
				c0.31-0.116,0.631-0.223,0.967-0.318c0.335-0.096,0.66-0.232,0.976-0.409c0.129-0.347,0.215-0.714,0.256-1.1
				c0.042-0.386,0.059-0.787,0.05-1.204c-0.009-0.416-0.037-0.836-0.083-1.26c-0.045-0.424-0.098-0.853-0.156-1.288
				c-0.059-0.435-0.129-0.868-0.212-1.3c-0.082-0.433-0.153-0.872-0.213-1.317c-0.062-0.447-0.113-0.887-0.161-1.324
				c-0.047-0.436-0.068-0.856-0.064-1.263c-0.117-0.868-0.2-1.748-0.248-2.637c-0.049-0.889-0.125-1.768-0.23-2.638
				c-0.106-0.871-0.25-1.712-0.434-2.528c-0.184-0.814-0.469-1.581-0.856-2.303c-0.284,0.008-0.571,0.008-0.857,0.003
				c-0.287-0.005-0.563-0.029-0.83-0.071c-0.267-0.042-0.53-0.115-0.792-0.219c-0.262-0.103-0.508-0.236-0.741-0.403
				c-0.159-0.149-0.285-0.326-0.378-0.531c-0.095-0.205-0.154-0.431-0.182-0.678c-0.025-0.247-0.023-0.498,0.01-0.751
				c0.031-0.254,0.095-0.493,0.19-0.718c0.075-0.175,0.185-0.329,0.325-0.465c0.141-0.133,0.289-0.25,0.444-0.351
				c0.155-0.1,0.332-0.179,0.528-0.236s0.4-0.102,0.611-0.138c0.211-0.034,0.422-0.068,0.633-0.104
				c0.211-0.034,0.428-0.063,0.651-0.088s0.441-0.054,0.652-0.088c0.21-0.035,0.419-0.086,0.626-0.157
				c0.938-0.148,1.857-0.295,2.76-0.44c0.901-0.146,1.793-0.277,2.675-0.396c0.881-0.119,1.763-0.226,2.646-0.321
				c0.885-0.095,1.799-0.181,2.743-0.26c1.746-0.164,3.49-0.298,5.23-0.403c1.741-0.104,3.463-0.212,5.167-0.324
				c-0.042,0.052-0.037,0.1,0.016,0.142c0.045,0.424,0.103,0.847,0.172,1.269c0.069,0.421,0.139,0.843,0.208,1.264
				c0.069,0.423,0.14,0.851,0.21,1.284s0.123,0.868,0.158,1.305c0.035,0.438,0.064,0.875,0.088,1.313
				c0.023,0.439,0.017,0.874-0.02,1.307c-0.037,0.433-0.098,0.868-0.181,1.306c-0.085,0.438-0.2,0.857-0.348,1.254
				c-0.192,0.212-0.419,0.373-0.681,0.483c-0.263,0.112-0.547,0.179-0.854,0.2s-0.62-0.005-0.938-0.078
				c-0.318-0.073-0.604-0.179-0.856-0.318c-0.186-0.171-0.336-0.351-0.452-0.542c-0.115-0.189-0.215-0.388-0.296-0.593
				c-0.082-0.206-0.141-0.42-0.177-0.643s-0.066-0.452-0.092-0.688c-0.025-0.234-0.045-0.471-0.059-0.708
				c-0.013-0.237-0.038-0.467-0.073-0.69c-0.037-0.222-0.085-0.449-0.146-0.681s-0.138-0.45-0.231-0.654
				c-0.095,0.01-0.177,0.019-0.248,0.026c-0.07,0.008-0.147,0.016-0.229,0.024s-0.159,0.012-0.231,0.008s-0.155-0.001-0.249,0.009
				c-0.877,0.047-1.768,0.078-2.672,0.091c-0.904,0.014-1.799,0.057-2.686,0.128c-0.887,0.072-1.766,0.209-2.637,0.41
				c-0.873,0.2-1.715,0.512-2.527,0.934c-0.016,0.525-0.021,1.086-0.016,1.681c0.005,0.596,0.04,1.2,0.105,1.812
				c0.066,0.613,0.162,1.222,0.287,1.828c0.124,0.606,0.3,1.184,0.525,1.731c0.542-0.059,1.09-0.118,1.645-0.178
				c0.553-0.059,1.125-0.121,1.713-0.184c0.155-0.112,0.279-0.239,0.371-0.38s0.178-0.287,0.256-0.439
				c0.079-0.151,0.146-0.313,0.198-0.485c0.053-0.173,0.106-0.345,0.159-0.518c0.053-0.172,0.112-0.339,0.178-0.502
				c0.066-0.161,0.145-0.313,0.237-0.454s0.198-0.265,0.317-0.374c0.119-0.108,0.271-0.196,0.454-0.264
				c0.277-0.077,0.546-0.13,0.806-0.158c0.258-0.028,0.504-0.024,0.733,0.011c0.23,0.035,0.446,0.112,0.651,0.234
				c0.203,0.121,0.389,0.292,0.556,0.512c0.223,0.739,0.437,1.521,0.646,2.344c0.208,0.823,0.364,1.664,0.469,2.523
				c0.104,0.859,0.133,1.726,0.084,2.601c-0.049,0.875-0.205,1.744-0.471,2.607c-0.078,0.152-0.196,0.278-0.352,0.377
				c-0.156,0.101-0.327,0.179-0.512,0.234c-0.185,0.056-0.377,0.095-0.577,0.116s-0.407,0.033-0.622,0.032
				c-0.432-0.025-0.778-0.143-1.039-0.353c-0.262-0.21-0.491-0.459-0.688-0.748c-0.198-0.289-0.374-0.591-0.527-0.909
				c-0.153-0.316-0.339-0.606-0.559-0.869c-0.28,0.054-0.575,0.079-0.886,0.077c-0.31-0.002-0.618,0.013-0.924,0.046
				c-0.307,0.033-0.604,0.089-0.894,0.167c-0.29,0.079-0.567,0.205-0.835,0.376c-0.159,0.518-0.244,1.057-0.255,1.618
				s0.026,1.135,0.114,1.722c0.086,0.586,0.198,1.176,0.333,1.769c0.136,0.593,0.269,1.169,0.401,1.727
				c0.03,0.069,0.102,0.121,0.213,0.156c0.111,0.036,0.238,0.052,0.381,0.049c0.143-0.004,0.296-0.015,0.461-0.032
				c0.165-0.018,0.307-0.021,0.429-0.011c0.951-0.007,1.878-0.042,2.776-0.102c0.899-0.062,1.791-0.145,2.673-0.252
				c0.882-0.107,1.768-0.238,2.657-0.394c0.889-0.155,1.787-0.341,2.692-0.559c0.208-0.285,0.331-0.577,0.37-0.88
				s0.047-0.613,0.024-0.933s-0.052-0.639-0.085-0.956c-0.034-0.318-0.045-0.633-0.03-0.944c0.062-0.316,0.132-0.598,0.212-0.845
				c0.082-0.247,0.182-0.473,0.303-0.677c0.121-0.203,0.275-0.38,0.461-0.532c0.187-0.15,0.404-0.288,0.654-0.41
				c0.444-0.071,0.863-0.057,1.256,0.044c0.392,0.1,0.732,0.278,1.022,0.533c0.437,0.739,0.754,1.521,0.95,2.347
				c0.195,0.825,0.341,1.667,0.433,2.527c0.093,0.86,0.151,1.73,0.175,2.609c0.022,0.879,0.078,1.719,0.164,2.52L325.525,203.05z"/>
			<path d="M500.315,331.826c0.071-0.361,0.126-0.727,0.162-1.097c0.034-0.37,0.052-0.746,0.052-1.125
				c-0.001-0.38-0.013-0.76-0.038-1.138c-0.023-0.378-0.043-0.757-0.055-1.136c-0.013-0.378-0.013-0.753,0-1.122
				c0.012-0.369,0.041-0.733,0.09-1.092c0.049-0.358,0.127-0.715,0.234-1.065c0.107-0.352,0.258-0.7,0.449-1.044
				c0.084-0.171,0.195-0.297,0.332-0.377c0.137-0.08,0.295-0.131,0.471-0.155c0.177-0.022,0.361-0.022,0.553,0
				s0.382,0.041,0.573,0.052c0.338,0.097,0.608,0.234,0.81,0.411c0.201,0.177,0.37,0.404,0.507,0.68
				c0.2,0.153,0.354,0.346,0.464,0.576c0.11,0.23,0.203,0.468,0.278,0.713c0.074,0.244,0.174,0.487,0.296,0.729
				c0.122,0.242,0.295,0.438,0.519,0.59c0.677,0.194,1.414,0.301,2.211,0.321c0.797,0.021,1.604,0.01,2.42-0.03
				c0.817-0.041,1.644-0.1,2.482-0.177c0.838-0.078,1.647-0.129,2.43-0.155c0.305-0.067,0.599-0.11,0.883-0.128
				c0.284-0.018,0.572,0.035,0.864,0.158c0.254-0.135,0.52-0.229,0.802-0.282c0.281-0.054,0.575-0.097,0.882-0.128
				c0.307-0.032,0.608-0.044,0.906-0.041c0.297,0.004,0.6,0.003,0.908-0.004c0.308-0.009,0.621-0.022,0.94-0.044
				c0.319-0.02,0.626-0.051,0.92-0.094s0.586-0.121,0.876-0.234c0.289-0.113,0.56-0.25,0.811-0.408
				c0.082-0.195,0.142-0.383,0.178-0.563s0.065-0.372,0.088-0.575c0.022-0.204,0.046-0.401,0.068-0.593
				c0.023-0.191,0.053-0.384,0.088-0.575c0.196-0.274,0.418-0.514,0.666-0.72c0.249-0.206,0.523-0.36,0.826-0.462
				c0.302-0.103,0.631-0.154,0.987-0.152c0.356,0,0.729,0.06,1.116,0.178c0.196,0.106,0.364,0.237,0.506,0.395
				c0.14,0.156,0.264,0.327,0.371,0.51c0.106,0.184,0.189,0.379,0.251,0.589s0.116,0.426,0.167,0.648
				c0.05,0.223,0.094,0.452,0.133,0.687c0.038,0.234,0.077,0.47,0.116,0.704c0.038,0.235,0.083,0.464,0.134,0.687
				c0.049,0.221,0.127,0.424,0.234,0.608c0.042,0.662,0.099,1.353,0.168,2.073c0.069,0.719,0.135,1.452,0.195,2.196
				c0.06,0.744,0.107,1.5,0.145,2.271c0.037,0.769,0.057,1.521,0.057,2.257c0,0.736-0.005,1.501-0.014,2.298
				c-0.008,0.796-0.064,1.589-0.168,2.38c-0.104,0.79-0.279,1.55-0.53,2.278c-0.25,0.728-0.594,1.392-1.03,1.989
				c-0.34,0.616-0.781,1.154-1.32,1.617c-0.54,0.461-1.157,0.846-1.85,1.151c-0.693,0.306-1.433,0.531-2.219,0.677
				c-0.787,0.145-1.584,0.196-2.395,0.154c-0.693-0.075-1.362-0.228-2.006-0.459c-0.645-0.231-1.251-0.524-1.82-0.88
				c-0.569-0.355-1.105-0.761-1.609-1.215c-0.504-0.455-0.975-0.941-1.411-1.458c-0.074-0.043-0.165-0.067-0.272-0.071
				c-0.107-0.006-0.213,0.006-0.317,0.038c-0.105,0.03-0.21,0.071-0.313,0.126c-0.104,0.054-0.189,0.107-0.257,0.159
				c-0.149,0.271-0.329,0.525-0.539,0.765c-0.211,0.239-0.439,0.462-0.688,0.667c-0.248,0.207-0.502,0.413-0.762,0.619
				c-0.26,0.207-0.488,0.447-0.684,0.721c-0.569,0.393-1.063,0.833-1.482,1.324c-0.42,0.49-0.809,1.008-1.166,1.553
				c-0.356,0.545-0.699,1.113-1.029,1.705c-0.331,0.591-0.679,1.184-1.045,1.776c-0.207,0.085-0.447,0.154-0.716,0.207
				c-0.271,0.053-0.554,0.082-0.85,0.09c-0.297,0.006-0.578-0.029-0.844-0.106c-0.267-0.078-0.501-0.217-0.703-0.417
				c-0.38-0.356-0.644-0.773-0.793-1.25s-0.241-0.981-0.275-1.514c-0.034-0.533-0.027-1.073,0.021-1.623s0.08-1.062,0.098-1.537
				c0.02-0.05,0.052-0.105,0.096-0.167s0.094-0.113,0.15-0.152s0.126-0.067,0.209-0.084c0.082-0.019,0.171-0.017,0.268,0
				c0.145,0.039,0.249,0.001,0.313-0.109c0.064-0.11,0.115-0.239,0.154-0.383c0.322-0.163,0.619-0.343,0.892-0.538
				c0.271-0.196,0.532-0.403,0.779-0.62c0.247-0.219,0.481-0.447,0.704-0.687c0.222-0.24,0.443-0.48,0.666-0.718
				c0.222-0.241,0.444-0.48,0.666-0.72c0.223-0.24,0.456-0.47,0.704-0.687c0.247-0.218,0.507-0.418,0.781-0.603
				c0.272-0.183,0.569-0.357,0.893-0.52c0.333-0.354,0.63-0.717,0.892-1.09c0.261-0.373,0.504-0.751,0.729-1.133
				c0.225-0.384,0.442-0.789,0.652-1.218c0.21-0.429,0.419-0.864,0.629-1.305c-0.047-0.354-0.07-0.726-0.072-1.117
				c-0.002-0.393-0.02-0.777-0.056-1.154c-0.036-0.378-0.113-0.741-0.23-1.09c-0.118-0.348-0.304-0.646-0.556-0.89
				c-0.398,0.097-0.787,0.14-1.168,0.128c-0.381-0.011-0.768-0.028-1.16-0.049c-0.393-0.022-0.785-0.028-1.176-0.014
				c-0.392,0.012-0.797,0.08-1.217,0.202c-0.133,0.151-0.24,0.313-0.324,0.483c-0.085,0.172-0.156,0.354-0.215,0.549
				c-0.06,0.193-0.1,0.392-0.122,0.596c-0.022,0.203-0.044,0.412-0.066,0.628c-0.022,0.214-0.038,0.43-0.048,0.643
				c-0.01,0.214-0.032,0.43-0.065,0.646c-0.034,0.216-0.074,0.426-0.12,0.631c-0.046,0.205-0.123,0.395-0.23,0.567
				c-0.16,0.105-0.368,0.195-0.624,0.272c-0.257,0.075-0.52,0.134-0.79,0.175c-0.27,0.042-0.55,0.041-0.837,0
				c-0.288-0.041-0.543-0.138-0.767-0.289c-0.421-0.258-0.738-0.588-0.954-0.989c-0.216-0.403-0.381-0.843-0.494-1.322
				c-0.114-0.481-0.193-0.974-0.237-1.481C500.454,332.784,500.394,332.296,500.315,331.826z M517.163,332.918
				c0.002,0.783,0.063,1.55,0.184,2.304c0.118,0.751,0.272,1.478,0.46,2.178c0.236,0.365,0.45,0.737,0.642,1.117
				c0.189,0.379,0.38,0.748,0.568,1.104c0.189,0.355,0.401,0.691,0.636,1.01c0.233,0.317,0.512,0.584,0.835,0.801
				c0.051,0.068,0.098,0.147,0.14,0.241c0.042,0.092,0.082,0.166,0.121,0.224c0.04,0.057,0.09,0.106,0.152,0.15
				c0.062,0.043,0.128,0.051,0.197,0.023c0.71-0.045,1.329-0.192,1.86-0.44c0.529-0.247,0.946-0.595,1.251-1.041
				c0.148-0.271,0.256-0.539,0.322-0.806c0.065-0.265,0.132-0.524,0.199-0.778c0.066-0.253,0.128-0.507,0.183-0.76
				c0.055-0.252,0.133-0.513,0.235-0.78c0.039-0.501,0.065-1.008,0.08-1.52c0.015-0.511,0.006-1.021-0.026-1.529
				c-0.033-0.508-0.089-1.004-0.166-1.486c-0.08-0.481-0.203-0.942-0.375-1.383c-0.606-0.198-1.218-0.296-1.835-0.292
				c-0.618,0.004-1.237,0.055-1.86,0.155c-0.623,0.099-1.238,0.216-1.847,0.351c-0.609,0.133-1.208,0.231-1.799,0.293
				c-0.044,0.05-0.07,0.105-0.078,0.166c-0.008,0.059-0.009,0.131-0.004,0.213c0.005,0.083,0.011,0.166,0.017,0.249
				C517.26,332.764,517.229,332.842,517.163,332.918z"/>
			<path d="M498.661,373.038c0.195-0.278,0.35-0.569,0.465-0.873c0.115-0.306,0.232-0.591,0.354-0.857
				c0.121-0.268,0.251-0.526,0.394-0.778c0.142-0.251,0.339-0.475,0.591-0.67c0.352-0.61,0.727-1.193,1.128-1.746
				c0.401-0.554,0.832-1.072,1.293-1.555c0.46-0.482,0.953-0.911,1.479-1.285c0.525-0.375,1.101-0.699,1.729-0.971
				c0.328-0.085,0.645-0.203,0.948-0.352c0.305-0.15,0.609-0.306,0.916-0.468c0.306-0.161,0.627-0.308,0.965-0.439
				c0.336-0.132,0.703-0.234,1.102-0.306c0.331,0.035,0.668,0.035,1.012,0.002c0.343-0.035,0.682-0.046,1.018-0.033
				c0.334,0.012,0.646,0.05,0.936,0.115c0.29,0.064,0.534,0.21,0.734,0.439c0.074-0.011,0.132-0.031,0.173-0.059
				c0.042-0.029,0.081-0.053,0.121-0.069c0.039-0.017,0.083-0.033,0.135-0.048c0.051-0.015,0.123-0.014,0.216,0.003
				c0.564,0.078,1.141,0.188,1.729,0.331c0.589,0.143,1.167,0.307,1.735,0.494c0.567,0.187,1.118,0.407,1.65,0.66
				c0.532,0.252,1.011,0.537,1.435,0.854c0.268,0.121,0.542,0.267,0.824,0.438c0.281,0.171,0.562,0.354,0.84,0.549
				s0.547,0.406,0.807,0.633c0.26,0.229,0.501,0.458,0.725,0.691c0.361,0.522,0.751,1.039,1.165,1.548s0.792,1.04,1.138,1.596
				s0.642,1.146,0.891,1.769c0.248,0.623,0.404,1.289,0.47,1.999c0.072,0.664,0.117,1.353,0.133,2.065s-0.017,1.418-0.094,2.114
				c-0.078,0.695-0.203,1.39-0.376,2.081c-0.174,0.691-0.426,1.355-0.758,1.994c-0.395,0.579-0.81,1.111-1.246,1.599
				c-0.438,0.487-0.905,0.944-1.404,1.372s-1.021,0.82-1.568,1.18c-0.547,0.358-1.114,0.702-1.703,1.029
				c-0.58,0.279-1.209,0.526-1.885,0.743c-0.678,0.214-1.369,0.401-2.071,0.564c-0.704,0.161-1.42,0.285-2.145,0.37
				c-0.726,0.086-1.431,0.15-2.112,0.196c-0.222-0.112-0.45-0.178-0.688-0.196s-0.481-0.033-0.732-0.041
				c-0.252-0.01-0.502-0.025-0.75-0.046c-0.25-0.021-0.51-0.081-0.781-0.178c-0.24-0.14-0.477-0.261-0.711-0.363
				s-0.476-0.2-0.724-0.294c-0.249-0.093-0.492-0.173-0.733-0.24c-0.24-0.067-0.485-0.148-0.732-0.24
				c-0.249-0.094-0.49-0.186-0.727-0.276c-0.237-0.091-0.471-0.2-0.701-0.325c-0.229-0.126-0.452-0.263-0.665-0.409
				c-0.215-0.147-0.422-0.335-0.621-0.564c-0.101-0.114-0.193-0.232-0.278-0.356c-0.086-0.125-0.182-0.232-0.285-0.323
				c-0.104-0.091-0.228-0.174-0.371-0.247c-0.144-0.075-0.319-0.13-0.529-0.168c-0.018-0.172-0.082-0.311-0.195-0.415
				c-0.114-0.105-0.235-0.199-0.365-0.282c-0.129-0.084-0.245-0.178-0.347-0.279c-0.102-0.104-0.149-0.238-0.144-0.406
				c-0.212-0.158-0.383-0.353-0.51-0.579c-0.127-0.229-0.246-0.473-0.354-0.732c-0.11-0.261-0.207-0.52-0.293-0.776
				c-0.087-0.256-0.204-0.506-0.353-0.749c-0.378-0.574-0.688-1.196-0.928-1.866c-0.239-0.67-0.414-1.369-0.523-2.098
				c-0.108-0.731-0.148-1.474-0.121-2.227C498.409,374.527,498.503,373.779,498.661,373.038z M503.731,375.363
				c0.025,0.39,0.056,0.793,0.089,1.208c0.032,0.415,0.097,0.824,0.193,1.227c0.095,0.402,0.22,0.78,0.373,1.134
				c0.153,0.353,0.349,0.671,0.587,0.955c0.115,0.021,0.205,0.061,0.266,0.12c0.063,0.06,0.11,0.122,0.146,0.188
				s0.06,0.138,0.07,0.212s0.021,0.147,0.033,0.223c0.256,0.046,0.469,0.133,0.639,0.26c0.169,0.126,0.317,0.274,0.443,0.441
				c0.127,0.167,0.254,0.329,0.383,0.485c0.128,0.154,0.279,0.285,0.453,0.389c0.136,0.048,0.251,0.111,0.346,0.188
				s0.184,0.147,0.268,0.211c0.086,0.063,0.178,0.123,0.275,0.177c0.1,0.054,0.23,0.096,0.393,0.125
				c0.253,0.069,0.504,0.146,0.755,0.227c0.25,0.08,0.498,0.174,0.744,0.279c0.246,0.104,0.478,0.224,0.693,0.359
				c0.216,0.135,0.405,0.29,0.566,0.464c0.244,0.116,0.465,0.192,0.663,0.228c0.198,0.037,0.389,0.047,0.572,0.031
				s0.378-0.021,0.582-0.021s0.423,0.022,0.656,0.064c0.352-0.081,0.702-0.157,1.053-0.226c0.35-0.069,0.699-0.139,1.049-0.208
				s0.694-0.145,1.035-0.229c0.339-0.083,0.676-0.179,1.008-0.286c0.333-0.109,0.649-0.226,0.949-0.353s0.581-0.286,0.846-0.479
				c0.263-0.193,0.508-0.408,0.73-0.645c0.224-0.236,0.435-0.505,0.633-0.807c0.418-0.311,0.73-0.676,0.939-1.095
				c0.208-0.42,0.357-0.851,0.449-1.292c0.092-0.44,0.146-0.9,0.159-1.379c0.015-0.479,0.036-0.934,0.065-1.361
				c-0.1-0.379-0.186-0.768-0.259-1.167c-0.072-0.397-0.161-0.774-0.265-1.131c-0.104-0.356-0.241-0.7-0.41-1.031
				c-0.169-0.333-0.401-0.609-0.698-0.831c-0.653-0.384-1.302-0.759-1.945-1.129c-0.644-0.368-1.292-0.715-1.943-1.037
				c-0.652-0.322-1.329-0.613-2.028-0.872s-1.444-0.472-2.232-0.639c-0.6-0.012-1.188,0.038-1.762,0.151s-1.137,0.264-1.689,0.453
				c-0.552,0.189-1.081,0.419-1.587,0.688c-0.507,0.27-0.999,0.53-1.478,0.78c-0.58,0.811-1.088,1.622-1.523,2.434
				C504.581,373.662,504.152,374.5,503.731,375.363z"/>
			<path d="M488.596,406.488c0.458-0.887,0.982-1.72,1.574-2.496c0.591-0.778,1.253-1.539,1.983-2.282
				c0.191-0.021,0.365-0.096,0.521-0.221c0.157-0.126,0.301-0.266,0.43-0.416c0.129-0.151,0.267-0.306,0.411-0.461
				c0.145-0.158,0.311-0.273,0.497-0.349c0.539-0.413,1.1-0.76,1.684-1.037c0.583-0.279,1.18-0.514,1.789-0.702
				c0.61-0.189,1.238-0.346,1.885-0.468c0.646-0.123,1.311-0.231,1.995-0.324c0.382,0.01,0.777,0.05,1.186,0.121
				c0.407,0.073,0.819,0.166,1.234,0.279c0.415,0.114,0.842,0.232,1.278,0.355c0.438,0.123,0.872,0.251,1.305,0.385
				c0.759,0.273,1.517,0.58,2.275,0.919c0.757,0.337,1.498,0.714,2.223,1.128c0.726,0.414,1.427,0.869,2.103,1.366
				c0.677,0.497,1.298,1.046,1.864,1.651c0.379,0.497,0.734,1.023,1.063,1.578c0.329,0.554,0.628,1.133,0.897,1.738
				c0.269,0.604,0.51,1.23,0.723,1.876c0.213,0.646,0.387,1.294,0.52,1.945c0.034,0.762,0.025,1.532-0.024,2.31
				c-0.05,0.778-0.152,1.56-0.309,2.344s-0.369,1.55-0.638,2.299c-0.271,0.748-0.607,1.473-1.012,2.176
				c-0.321,0.327-0.617,0.671-0.887,1.031c-0.271,0.361-0.548,0.72-0.83,1.076c-0.281,0.355-0.572,0.702-0.871,1.038
				c-0.298,0.336-0.637,0.642-1.013,0.919c-0.109,0.134-0.15,0.29-0.124,0.469c0.026,0.18,0.077,0.362,0.152,0.549
				c0.074,0.188,0.154,0.376,0.239,0.566c0.086,0.192,0.128,0.379,0.128,0.559c-0.019,0.225-0.072,0.426-0.163,0.606
				s-0.206,0.344-0.346,0.491c-0.141,0.145-0.294,0.279-0.462,0.4s-0.34,0.234-0.515,0.34c-0.743-0.009-1.497-0.1-2.261-0.273
				s-1.518-0.4-2.262-0.68c-0.743-0.28-1.458-0.627-2.146-1.038c-0.688-0.41-1.342-0.853-1.964-1.326
				c-0.128-0.184-0.21-0.354-0.245-0.511c-0.036-0.158-0.043-0.322-0.021-0.492c0.021-0.172,0.051-0.346,0.089-0.522
				c0.037-0.178,0.061-0.368,0.07-0.57c0.02-0.224,0.084-0.422,0.196-0.593s0.24-0.322,0.388-0.452
				c0.146-0.131,0.313-0.247,0.497-0.348c0.186-0.101,0.371-0.188,0.558-0.263c0.74,0.136,1.439,0.146,2.096,0.028
				c0.657-0.118,1.284-0.319,1.884-0.604c0.599-0.284,1.162-0.649,1.688-1.094c0.525-0.445,1.018-0.931,1.475-1.456
				c0.427-0.693,0.755-1.385,0.986-2.072c0.229-0.688,0.357-1.374,0.381-2.061c0.023-0.686-0.032-1.367-0.167-2.045
				c-0.135-0.676-0.355-1.351-0.659-2.023c-0.219-0.635-0.54-1.236-0.966-1.807c-0.426-0.569-0.929-1.094-1.509-1.575
				c-0.581-0.481-1.217-0.922-1.909-1.321c-0.692-0.4-1.413-0.749-2.162-1.045c-0.738-0.266-1.46-0.445-2.166-0.542
				c-0.706-0.098-1.401-0.131-2.084-0.101c-0.684,0.027-1.354,0.12-2.015,0.275c-0.659,0.156-1.322,0.349-1.988,0.579
				c-0.352,0.158-0.688,0.354-1.009,0.592c-0.32,0.235-0.62,0.5-0.9,0.793c-0.28,0.292-0.544,0.604-0.789,0.938
				c-0.247,0.333-0.474,0.681-0.68,1.044c-0.208,0.361-0.395,0.739-0.563,1.131c-0.168,0.393-0.326,0.789-0.472,1.19
				c-0.146,0.401-0.278,0.796-0.394,1.185c-0.114,0.389-0.215,0.771-0.299,1.148c0.047,0.072,0.067,0.145,0.061,0.22
				c-0.162,0.317-0.268,0.639-0.317,0.966s-0.063,0.644-0.04,0.949c0.023,0.307,0.078,0.615,0.165,0.923s0.175,0.616,0.261,0.924
				c0.087,0.309,0.174,0.617,0.262,0.925c0.086,0.308,0.143,0.615,0.165,0.922c0.023,0.307,0.013,0.617-0.032,0.934
				c-0.046,0.314-0.154,0.643-0.325,0.981c-0.247,0.152-0.509,0.267-0.784,0.341c-0.277,0.075-0.57,0.11-0.878,0.106
				c-0.309-0.003-0.626-0.029-0.952-0.079s-0.67-0.139-1.027-0.267c-0.363-0.413-0.65-0.872-0.859-1.374
				c-0.21-0.504-0.387-1.024-0.53-1.563c-0.143-0.539-0.26-1.092-0.352-1.66c-0.091-0.567-0.196-1.135-0.313-1.701
				c0.071-0.588,0.179-1.199,0.322-1.834c0.143-0.635,0.312-1.265,0.502-1.893c0.191-0.627,0.395-1.249,0.608-1.866
				C488.189,407.674,488.396,407.072,488.596,406.488z"/>
			<path d="M475.978,431.26c0.478-0.441,0.906-0.927,1.287-1.456c0.381-0.53,0.756-1.063,1.127-1.599
				c0.371-0.537,0.767-1.048,1.188-1.531c0.421-0.484,0.9-0.91,1.44-1.275c0.279-0.059,0.559-0.056,0.839,0.005
				c0.279,0.06,0.556,0.155,0.828,0.285c0.273,0.131,0.543,0.294,0.809,0.493c0.266,0.198,0.508,0.408,0.727,0.631
				c0.133,0.455,0.152,0.935,0.057,1.439c-0.096,0.506-0.264,1.037-0.505,1.598c-0.043,0.057-0.056,0.135-0.042,0.234
				c0.015,0.1,0.051,0.199,0.107,0.303c0.057,0.102,0.114,0.203,0.171,0.305c0.058,0.102,0.109,0.199,0.157,0.295
				c0.366,0.42,0.735,0.807,1.107,1.159c0.374,0.353,0.744,0.688,1.111,1.007c0.369,0.319,0.756,0.623,1.162,0.911
				s0.841,0.576,1.306,0.864c0.177,0.279,0.387,0.503,0.632,0.672c0.244,0.167,0.504,0.324,0.779,0.471
				c0.274,0.146,0.556,0.304,0.843,0.475c0.287,0.169,0.542,0.381,0.767,0.638c0.835,0.624,1.665,1.235,2.488,1.835
				c0.824,0.601,1.68,1.217,2.567,1.851c0.223,0.018,0.455,0.015,0.696-0.013c0.242-0.027,0.482-0.062,0.722-0.104
				c0.238-0.044,0.473-0.098,0.699-0.165c0.229-0.067,0.46-0.131,0.696-0.189c0.237-0.061,0.479-0.116,0.726-0.169
				c0.245-0.054,0.487-0.088,0.721-0.105c0.235-0.017,0.476-0.022,0.722-0.016s0.495,0.06,0.747,0.159
				c0.171,0.127,0.342,0.254,0.513,0.382s0.326,0.266,0.467,0.415c0.14,0.148,0.256,0.31,0.35,0.482
				c0.093,0.174,0.153,0.359,0.182,0.558c-0.123,0.085-0.198,0.177-0.227,0.274c-0.027,0.098-0.035,0.196-0.021,0.295
				c0.015,0.101,0.038,0.207,0.072,0.32c0.032,0.113,0.057,0.221,0.071,0.319c-0.34,0.574-0.676,1.174-1.009,1.798
				c-0.332,0.623-0.687,1.225-1.059,1.805c-0.374,0.578-0.782,1.116-1.227,1.613c-0.444,0.495-0.938,0.91-1.483,1.243
				c-0.023,0.071-0.04,0.133-0.049,0.185c-0.004,0.204-0.072,0.383-0.202,0.537s-0.282,0.301-0.457,0.436
				c-0.176,0.135-0.357,0.28-0.547,0.435c-0.188,0.154-0.339,0.323-0.446,0.509c-0.289,0.109-0.586,0.191-0.892,0.244
				s-0.618,0.056-0.938,0.01c-0.32-0.047-0.631-0.146-0.932-0.297c-0.302-0.151-0.615-0.363-0.943-0.637
				c-0.162-0.182-0.282-0.367-0.361-0.559c-0.078-0.191-0.119-0.385-0.121-0.578c-0.004-0.195,0.018-0.401,0.062-0.619
				c0.045-0.219,0.11-0.436,0.198-0.651s0.174-0.432,0.262-0.647c0.087-0.216,0.183-0.433,0.286-0.651
				c0.104-0.218,0.195-0.431,0.276-0.637c0.079-0.206,0.147-0.407,0.204-0.602c-0.142-0.165-0.306-0.323-0.487-0.474
				c-0.184-0.153-0.365-0.295-0.545-0.43c-0.182-0.135-0.354-0.279-0.521-0.433c-0.166-0.154-0.313-0.323-0.441-0.508
				c-0.138-0.014-0.3-0.054-0.487-0.12c-0.188-0.065-0.381-0.144-0.58-0.232c-0.199-0.09-0.405-0.191-0.616-0.305
				s-0.402-0.233-0.573-0.361c-0.146,0.156-0.236,0.318-0.271,0.484c-0.036,0.165-0.045,0.336-0.028,0.512
				c0.018,0.176,0.044,0.357,0.08,0.548c0.036,0.188,0.058,0.376,0.068,0.562c0.059,0.635,0.075,1.275,0.05,1.923
				c-0.023,0.646-0.04,1.292-0.049,1.937c-0.008,0.645,0.035,1.282,0.126,1.913c0.092,0.63,0.29,1.235,0.594,1.818
				c0.133-0.02,0.25-0.028,0.353-0.026c0.102,0.003,0.209,0.017,0.323,0.043c0.114,0.024,0.228,0.051,0.342,0.077
				c0.113,0.025,0.251,0.069,0.412,0.13c0.228,0.17,0.464,0.34,0.708,0.507c0.245,0.167,0.483,0.353,0.717,0.558
				c0.232,0.201,0.434,0.419,0.602,0.648c0.169,0.229,0.268,0.503,0.298,0.82c-0.241,0.441-0.513,0.874-0.815,1.299
				s-0.614,0.844-0.936,1.254s-0.642,0.83-0.961,1.257c-0.318,0.428-0.599,0.862-0.839,1.303c-0.294,0.313-0.563,0.637-0.812,0.97
				c-0.248,0.332-0.515,0.658-0.799,0.979c-0.283,0.32-0.596,0.611-0.939,0.873c-0.344,0.261-0.742,0.459-1.196,0.593
				c-0.255,0.104-0.508,0.146-0.758,0.122c-0.248-0.022-0.479-0.091-0.689-0.204c-0.211-0.113-0.415-0.267-0.612-0.458
				s-0.391-0.417-0.581-0.677c-0.11-0.289-0.178-0.584-0.204-0.885c-0.027-0.302-0.008-0.604,0.059-0.91
				c0.064-0.306,0.147-0.614,0.246-0.925s0.202-0.618,0.311-0.922s0.216-0.615,0.321-0.935c0.106-0.32,0.183-0.642,0.229-0.96
				c0.046-0.32,0.056-0.641,0.026-0.957c-0.029-0.317-0.118-0.635-0.266-0.953c-0.19-0.615-0.32-1.243-0.389-1.886
				c-0.067-0.643-0.114-1.282-0.138-1.923c-0.026-0.64-0.063-1.273-0.111-1.9c-0.049-0.629-0.17-1.251-0.36-1.867
				c-0.048,0.024-0.107,0.046-0.182,0.064c-0.072,0.02-0.159,0.037-0.259,0.052c-0.218,0.132-0.447,0.242-0.688,0.328
				c-0.242,0.086-0.486,0.154-0.732,0.208c-0.246,0.053-0.495,0.088-0.746,0.108c-0.251,0.019-0.504,0.029-0.757,0.034
				c-0.254,0.002-0.508,0.005-0.761,0.008s-0.511,0.01-0.771,0.023c-0.261,0.012-0.515,0.037-0.765,0.072
				c-0.248,0.037-0.504,0.09-0.764,0.162c-0.236,0.119-0.485,0.185-0.746,0.197c-0.26,0.012-0.524,0-0.792-0.037
				c-0.269-0.039-0.536-0.105-0.804-0.201c-0.269-0.098-0.537-0.201-0.809-0.315c-0.331-0.069-0.634-0.14-0.906-0.211
				c-0.273-0.07-0.551-0.145-0.832-0.222c-0.282-0.077-0.557-0.156-0.822-0.236s-0.547-0.157-0.847-0.233
				c-0.227,0.067-0.447,0.154-0.66,0.262s-0.415,0.229-0.607,0.368c-0.19,0.137-0.378,0.277-0.562,0.424
				c-0.182,0.145-0.363,0.289-0.545,0.435c-0.184,0.145-0.366,0.282-0.551,0.41s-0.371,0.239-0.561,0.335s-0.387,0.162-0.594,0.2
				c-0.205,0.04-0.42,0.049-0.643,0.03c-0.323-0.004-0.626-0.083-0.91-0.235c-0.285-0.154-0.543-0.354-0.773-0.6
				c-0.23-0.246-0.435-0.517-0.613-0.813c-0.178-0.297-0.313-0.582-0.403-0.856c0.056-0.313,0.145-0.609,0.265-0.889
				c0.12-0.28,0.268-0.548,0.442-0.801c0.175-0.254,0.371-0.507,0.588-0.758c0.218-0.252,0.444-0.497,0.682-0.734
				c0.236-0.238,0.476-0.48,0.72-0.727c0.243-0.248,0.486-0.494,0.73-0.741s0.475-0.496,0.691-0.748s0.416-0.519,0.596-0.798
				c0.16-0.057,0.323-0.076,0.486-0.059c0.164,0.02,0.324,0.05,0.484,0.096c0.158,0.044,0.313,0.086,0.463,0.123
				c0.148,0.037,0.313,0.035,0.493-0.008c0.427,0.141,0.847,0.262,1.259,0.363c0.413,0.102,0.832,0.184,1.256,0.249
				s0.847,0.114,1.266,0.147c0.42,0.031,0.852,0.066,1.298,0.103c0.612,0.132,1.252,0.255,1.921,0.37
				c0.668,0.113,1.333,0.174,1.994,0.18s1.326-0.053,1.994-0.176c0.667-0.122,1.318-0.331,1.953-0.625
				c0.17-0.11,0.31-0.258,0.419-0.442c0.108-0.186,0.192-0.388,0.254-0.608c0.061-0.221,0.104-0.447,0.13-0.679
				c0.025-0.233,0.041-0.451,0.045-0.655c0.009-0.289-0.022-0.563-0.095-0.824c-0.071-0.26-0.178-0.504-0.321-0.728
				c-0.142-0.226-0.305-0.435-0.484-0.628c-0.182-0.195-0.39-0.381-0.627-0.557c-0.238-0.178-0.485-0.341-0.744-0.489
				c-0.259-0.149-0.525-0.296-0.801-0.442s-0.545-0.281-0.808-0.404c-0.264-0.121-0.53-0.24-0.801-0.353
				c-0.274,0.09-0.5,0.232-0.674,0.428c-0.175,0.194-0.341,0.396-0.497,0.605c-0.155,0.209-0.325,0.407-0.511,0.595
				c-0.184,0.188-0.413,0.326-0.688,0.417c-0.303,0.13-0.61,0.173-0.92,0.134c-0.311-0.04-0.613-0.141-0.907-0.299
				c-0.295-0.162-0.582-0.361-0.862-0.6c-0.279-0.239-0.548-0.484-0.805-0.734c-0.085-0.123-0.138-0.252-0.157-0.383
				c-0.019-0.134-0.026-0.272-0.022-0.416c0.005-0.146,0.025-0.292,0.063-0.441c0.037-0.149,0.071-0.303,0.099-0.459
				c0.094-0.285,0.218-0.568,0.371-0.854s0.316-0.563,0.488-0.833c0.173-0.271,0.354-0.534,0.546-0.79
				C475.605,431.759,475.794,431.507,475.978,431.26z"/>
			<path d="M417.474,481.194c0.851-0.366,1.686-0.763,2.505-1.192c0.818-0.429,1.675-0.863,2.566-1.305
				c0.812-0.291,1.607-0.647,2.389-1.07c0.782-0.423,1.567-0.84,2.354-1.253c0.788-0.412,1.578-0.793,2.371-1.142
				c0.794-0.35,1.587-0.61,2.379-0.784c0.202,0.028,0.392,0.108,0.568,0.243c0.179,0.135,0.3,0.291,0.367,0.471l0.575,0.1
				c0.088,0.221,0.206,0.46,0.354,0.717s0.284,0.555,0.406,0.891c-0.077,0.361-0.212,0.693-0.402,0.994
				c-0.19,0.3-0.411,0.568-0.66,0.808c-0.251,0.237-0.535,0.46-0.854,0.668c-0.319,0.207-0.642,0.409-0.967,0.605
				c-0.324,0.196-0.662,0.395-1.015,0.592c-0.351,0.197-0.684,0.405-0.997,0.624c-0.313,0.217-0.614,0.447-0.901,0.692
				c-0.287,0.243-0.522,0.521-0.708,0.832c0.129,0.602,0.341,1.187,0.637,1.753c0.298,0.566,0.615,1.136,0.955,1.707
				s0.678,1.15,1.011,1.738c0.335,0.587,0.619,1.206,0.854,1.859c0.48,0.766,0.922,1.544,1.324,2.336
				c0.401,0.793,0.801,1.594,1.197,2.402c0.397,0.809,0.818,1.611,1.262,2.409c0.445,0.796,0.928,1.565,1.451,2.31
				c0.318-0.006,0.635-0.052,0.951-0.138c0.316-0.084,0.635-0.192,0.957-0.319c0.32-0.128,0.648-0.268,0.984-0.416
				c0.338-0.15,0.673-0.3,1.01-0.449c0.336-0.149,0.673-0.285,1.01-0.408s0.682-0.217,1.036-0.281s0.711-0.099,1.071-0.101
				s0.717,0.052,1.068,0.163c0.338,0.491,0.563,1.022,0.674,1.593c0.112,0.571,0.078,1.145-0.103,1.72
				c-0.561,0.614-1.2,1.156-1.917,1.626s-1.463,0.907-2.24,1.314c-0.777,0.405-1.575,0.798-2.395,1.174
				c-0.82,0.376-1.618,0.768-2.396,1.175c-0.755,0.396-1.503,0.807-2.242,1.234c-0.739,0.427-1.489,0.833-2.251,1.219
				c-0.761,0.386-1.552,0.726-2.373,1.023c-0.821,0.296-1.682,0.504-2.58,0.629c-0.244-0.059-0.473-0.162-0.682-0.306
				c-0.209-0.146-0.4-0.318-0.574-0.521c-0.173-0.204-0.32-0.434-0.442-0.691c-0.121-0.258-0.237-0.518-0.349-0.78
				c0.023-0.414,0.149-0.787,0.377-1.12c0.227-0.333,0.499-0.63,0.817-0.891s0.664-0.509,1.035-0.743
				c0.372-0.234,0.726-0.467,1.061-0.695c0.308,0.025,0.606-0.017,0.896-0.129c0.29-0.11,0.568-0.257,0.835-0.436
				c0.267-0.181,0.524-0.39,0.775-0.628c0.25-0.238,0.499-0.476,0.749-0.714c-0.193-0.674-0.444-1.346-0.754-2.013
				c-0.309-0.667-0.645-1.333-1.008-2c-0.361-0.666-0.732-1.349-1.111-2.046c-0.378-0.697-0.723-1.394-1.033-2.088
				c-0.407-0.776-0.803-1.545-1.188-2.306c-0.386-0.763-0.779-1.513-1.18-2.252c-0.401-0.74-0.833-1.464-1.297-2.17
				c-0.464-0.707-0.983-1.378-1.557-2.013c-0.074-0.042-0.146-0.051-0.215-0.028c-0.069,0.021-0.155,0.062-0.26,0.116
				c-0.256-0.027-0.518-0.017-0.787,0.03c-0.27,0.048-0.533,0.118-0.791,0.214c-0.258,0.095-0.518,0.211-0.78,0.349
				s-0.522,0.28-0.779,0.428s-0.52,0.299-0.786,0.452c-0.268,0.153-0.535,0.294-0.803,0.421c-0.269,0.127-0.539,0.235-0.813,0.325
				s-0.563,0.148-0.87,0.176c-0.237-0.197-0.496-0.41-0.775-0.637c-0.28-0.229-0.534-0.484-0.763-0.766
				c-0.228-0.281-0.413-0.586-0.558-0.912c-0.144-0.325-0.203-0.695-0.18-1.109c0.173-0.385,0.434-0.729,0.783-1.031
				c0.35-0.305,0.738-0.582,1.169-0.834c0.43-0.252,0.873-0.491,1.33-0.717S417.117,481.434,417.474,481.194z"/>
			<path d="M393.464,490.17c0.368-0.005,0.737-0.046,1.109-0.124c0.371-0.079,0.745-0.171,1.123-0.275
				c0.376-0.104,0.756-0.222,1.137-0.353c0.382-0.131,0.762-0.248,1.139-0.354c0.376-0.104,0.746-0.188,1.109-0.252
				c0.364-0.063,0.722-0.084,1.072-0.059c0.352,0.025,0.694,0.108,1.029,0.25c0.334,0.141,0.663,0.351,0.986,0.63
				c0.092,0.245,0.167,0.513,0.223,0.806c0.058,0.29,0.078,0.586,0.063,0.886c-0.015,0.299-0.057,0.593-0.124,0.883
				c-0.067,0.289-0.167,0.55-0.298,0.784c-0.393,0.183-0.786,0.359-1.182,0.53c-0.395,0.171-0.795,0.344-1.202,0.519
				c-0.407,0.174-0.803,0.364-1.188,0.57c-0.385,0.205-0.753,0.431-1.104,0.675c-0.047,0.185-0.098,0.358-0.15,0.521
				c-0.053,0.162-0.084,0.317-0.091,0.468c-0.008,0.15,0.013,0.292,0.063,0.426c0.05,0.135,0.153,0.265,0.312,0.393
				c0.271,0.885,0.531,1.758,0.784,2.623c0.253,0.864,0.504,1.791,0.753,2.779c0.213,0.851,0.426,1.708,0.641,2.57
				c0.216,0.863,0.442,1.728,0.684,2.596c0.242,0.867,0.522,1.725,0.844,2.569c0.32,0.846,0.682,1.68,1.082,2.504
				c0.303,0.112,0.611,0.144,0.93,0.093c0.317-0.052,0.639-0.136,0.964-0.249c0.325-0.116,0.649-0.249,0.977-0.401
				c0.326-0.152,0.639-0.27,0.936-0.353c-0.009-0.12-0.011-0.218-0.008-0.292c0.004-0.076,0.015-0.146,0.034-0.213
				c0.018-0.066,0.027-0.143,0.027-0.229c0.001-0.088-0.015-0.188-0.046-0.302c0.052-0.433,0.042-0.866-0.03-1.302
				c-0.07-0.435-0.143-0.869-0.215-1.305c-0.071-0.436-0.133-0.88-0.185-1.331c-0.053-0.454-0.044-0.911,0.024-1.373
				c0.146-0.36,0.391-0.698,0.732-1.015c0.343-0.316,0.791-0.539,1.346-0.669c0.258-0.047,0.5-0.034,0.729,0.037
				c0.229,0.071,0.448,0.171,0.655,0.298s0.402,0.275,0.584,0.446c0.184,0.171,0.352,0.356,0.506,0.561
				c0.131,0.382,0.271,0.772,0.419,1.175c0.149,0.402,0.305,0.807,0.468,1.217s0.322,0.832,0.48,1.269
				c0.158,0.436,0.311,0.873,0.457,1.312c0.146,0.439,0.281,0.881,0.405,1.326c0.123,0.445,0.219,0.898,0.285,1.359
				c0.067,0.461,0.116,0.928,0.148,1.398c0.033,0.471,0.026,0.934-0.021,1.389c-0.063,0.214-0.192,0.367-0.389,0.459
				c-0.196,0.091-0.414,0.17-0.653,0.236s-0.497,0.138-0.771,0.215c-0.274,0.076-0.505,0.176-0.691,0.302
				c-0.195,0.005-0.397,0.049-0.609,0.133c-0.21,0.082-0.422,0.159-0.636,0.231c-0.214,0.071-0.423,0.117-0.626,0.137
				c-0.203,0.021-0.376-0.049-0.519-0.207c-0.068,0.02-0.114,0.052-0.14,0.095c-0.024,0.044-0.048,0.093-0.069,0.148
				s-0.041,0.116-0.061,0.183c-0.019,0.067-0.044,0.129-0.077,0.188c-0.576,0.136-1.158,0.297-1.746,0.485s-1.178,0.364-1.771,0.528
				c-0.594,0.166-1.18,0.291-1.758,0.379c-0.578,0.086-1.137,0.094-1.673,0.021c-0.033,0.059-0.054,0.119-0.06,0.183
				c-0.008,0.063-0.009,0.124-0.005,0.186c0.005,0.06,0.003,0.121-0.003,0.186c-0.007,0.063-0.033,0.102-0.079,0.113
				c-0.384,0.033-0.755,0.094-1.112,0.18c-0.357,0.087-0.735,0.162-1.137,0.225c-0.852,0.212-1.688,0.45-2.513,0.716
				s-1.642,0.512-2.452,0.736c-0.811,0.226-1.634,0.404-2.47,0.538s-1.694,0.163-2.576,0.089c-0.158-0.302-0.272-0.626-0.345-0.975
				s-0.166-0.729-0.279-1.139c-0.199-0.807-0.423-1.611-0.67-2.415c-0.248-0.805-0.469-1.617-0.659-2.437
				c-0.19-0.82-0.327-1.643-0.409-2.469s-0.048-1.679,0.102-2.556c0.146-0.188,0.318-0.341,0.52-0.458s0.425-0.217,0.673-0.297
				c0.248-0.082,0.507-0.166,0.778-0.254s0.515-0.186,0.73-0.295c0.035,0.039,0.084,0.063,0.147,0.069
				c0.064,0.007,0.126,0.009,0.187,0.004c0.06-0.005,0.122-0.004,0.185,0.004c0.063,0.007,0.116,0.042,0.158,0.104
				c0.343,0.348,0.643,0.762,0.899,1.244c0.256,0.481,0.491,0.994,0.703,1.538c0.213,0.544,0.423,1.101,0.631,1.669
				c0.207,0.57,0.433,1.115,0.676,1.639c0.285,0.143,0.619,0.216,1.002,0.221c0.383,0.004,0.768-0.047,1.156-0.155
				s0.772-0.252,1.152-0.432c0.381-0.18,0.703-0.368,0.969-0.564c-0.154-0.646-0.305-1.274-0.45-1.885
				c-0.145-0.612-0.3-1.215-0.465-1.808c-0.165-0.594-0.325-1.195-0.482-1.804c-0.155-0.607-0.312-1.235-0.467-1.88
				c-0.268-0.787-0.495-1.604-0.681-2.449c-0.186-0.847-0.398-1.679-0.639-2.498c-0.239-0.819-0.524-1.625-0.855-2.418
				s-0.752-1.537-1.266-2.23c-0.614-0.002-1.262,0.056-1.944,0.17c-0.681,0.115-1.355,0.254-2.024,0.416
				c-0.11-0.043-0.227-0.086-0.348-0.125c-0.122-0.04-0.242-0.074-0.361-0.103c-0.118-0.028-0.234-0.071-0.349-0.126
				c-0.112-0.055-0.22-0.129-0.32-0.224c-0.239-0.155-0.424-0.356-0.554-0.603s-0.236-0.513-0.314-0.798
				c-0.08-0.286-0.124-0.581-0.136-0.886c-0.011-0.305,0.003-0.609,0.042-0.914c0.197-0.351,0.431-0.662,0.7-0.933
				c0.269-0.272,0.566-0.507,0.892-0.709c0.325-0.2,0.676-0.378,1.051-0.532c0.375-0.153,0.762-0.292,1.158-0.413
				c0.396-0.124,0.8-0.241,1.211-0.354c0.41-0.114,0.818-0.222,1.221-0.321c0.402-0.099,0.797-0.209,1.182-0.328
				S393.134,490.311,393.464,490.17z"/>
		</g>
	</g>
</g>
</svg>
