<?xml version="1.0" encoding="utf-8"?>
<!-- Generator: Adobe Illustrator 15.0.0, SVG Export Plug-In . SVG Version: 6.00 Build 0)  -->
<!DOCTYPE svg PUBLIC "-//W3C//DTD SVG 1.1//EN" "http://www.w3.org/Graphics/SVG/1.1/DTD/svg11.dtd">
<svg version="1.1" id="Layer_15_copy_2" xmlns="http://www.w3.org/2000/svg" xmlns:xlink="http://www.w3.org/1999/xlink" x="0px"
	 y="0px" width="720px" height="720px" viewBox="0 0 720 720" enable-background="new 0 0 720 720" xml:space="preserve">
<linearGradient id="SVGID_1_" gradientUnits="userSpaceOnUse" x1="270.3623" y1="616.5781" x2="270.3623" y2="546.4629" gradientTransform="matrix(0.7108 0.7035 0.7035 -0.7108 -95.2305 360.287)">
	<stop  offset="0" style="stop-color:#FFFFFF"/>
	<stop  offset="0.2801" style="stop-color:#FBFBFB"/>
	<stop  offset="0.443" style="stop-color:#F3F3F4"/>
	<stop  offset="0.5758" style="stop-color:#E7E8E9"/>
	<stop  offset="0.6923" style="stop-color:#D6D8D9"/>
	<stop  offset="0.7983" style="stop-color:#C1C3C5"/>
	<stop  offset="0.8966" style="stop-color:#A7A9AB"/>
	<stop  offset="0.9873" style="stop-color:#8A8C8F"/>
	<stop  offset="1" style="stop-color:#86888A"/>
</linearGradient>
<path fill="url(#SVGID_1_)" d="M468.181,142.299l1.33,8.016c4.151-1.697,53.552-22.942,77.744-21.714
	C544.692,128.625,503.795,127.223,468.181,142.299z"/>
<g>
	<path fill="#FFFFFF" d="M249,402c0,0,17-10,18-13s32,32,32,32s-11,21-12,24s-40,7-40,7l-6-38L249,402z"/>
	<g>
		
			<linearGradient id="SVGID_2_" gradientUnits="userSpaceOnUse" x1="267.6055" y1="343.9575" x2="267.338" y2="377.143" gradientTransform="matrix(0.6774 0.688 0.7126 -0.7016 -151.0104 472.7751)">
			<stop  offset="0" style="stop-color:#4A55A5"/>
			<stop  offset="0.0371" style="stop-color:#454F99"/>
			<stop  offset="0.1375" style="stop-color:#384081"/>
			<stop  offset="0.2427" style="stop-color:#2B316A"/>
			<stop  offset="0.3507" style="stop-color:#1F2456"/>
			<stop  offset="0.4622" style="stop-color:#131646"/>
			<stop  offset="0.5783" style="stop-color:#060437"/>
			<stop  offset="0.701" style="stop-color:#00002A"/>
			<stop  offset="0.8347" style="stop-color:#000020"/>
			<stop  offset="1" style="stop-color:#00001C"/>
		</linearGradient>
		<path fill="url(#SVGID_2_)" d="M272.534,365.828l52.169,52.981l-21.22,13.255c-23.299-7.599-36.021-20.523-44.532-45.229
			L272.534,365.828z"/>
		
			<linearGradient id="SVGID_3_" gradientUnits="userSpaceOnUse" x1="70.1133" y1="517.2637" x2="237.7734" y2="517.2637" gradientTransform="matrix(0.7157 0.6984 0.6984 -0.7157 -74.3372 550.9897)">
			<stop  offset="0" style="stop-color:#A7A9AC"/>
			<stop  offset="0.0806" style="stop-color:#8A8C8F"/>
			<stop  offset="0.1692" style="stop-color:#717275"/>
			<stop  offset="0.2596" style="stop-color:#5B5C5E"/>
			<stop  offset="0.3516" style="stop-color:#4A4A4C"/>
			<stop  offset="0.4461" style="stop-color:#3F3F40"/>
			<stop  offset="0.5468" style="stop-color:#383839"/>
			<stop  offset="0.6316" style="stop-color:#3F3E40"/>
			<stop  offset="0.7098" style="stop-color:#4A4A4C"/>
			<stop  offset="0.7854" style="stop-color:#5B5C5E"/>
			<stop  offset="0.8594" style="stop-color:#707174"/>
			<stop  offset="0.9316" style="stop-color:#898B8E"/>
			<stop  offset="1" style="stop-color:#A7A9AC"/>
		</linearGradient>
		<path fill="url(#SVGID_3_)" d="M545.403,217.23c-4.81-0.202-32.114-2.07-52.643-22.073
			c-22.505-21.934-28.866-39.355-29.758-55.326C314.23,194.847,265.427,360.235,265.427,360.235
			c15.086,46.474,65.341,68.22,65.341,68.22C466.555,364.375,522.969,280.461,545.403,217.23z"/>
		
			<linearGradient id="SVGID_4_" gradientUnits="userSpaceOnUse" x1="263.5366" y1="527.0928" x2="330.8071" y2="594.3632" gradientTransform="matrix(0.7108 0.7035 0.7035 -0.7108 -95.2305 360.287)">
			<stop  offset="0" style="stop-color:#4A55A5"/>
			<stop  offset="0.0661" style="stop-color:#454F9A"/>
			<stop  offset="0.4134" style="stop-color:#2C336C"/>
			<stop  offset="0.695" style="stop-color:#151848"/>
			<stop  offset="0.8971" style="stop-color:#00002C"/>
			<stop  offset="1" style="stop-color:#00001C"/>
		</linearGradient>
		<path fill="url(#SVGID_4_)" d="M545.698,216.93c17.716-59.075,11.049-90.143,10.635-92.93
			c-33.907,0.616-64.614,5.85-93.598,15.167c0.69,4.159-2.112,26.182,27.539,55.531C517.255,221.399,540.972,216.858,545.698,216.93
			z"/>
		
			<radialGradient id="SVGID_5_" cx="154.9775" cy="609.0332" r="30.8425" gradientTransform="matrix(0.7157 0.6984 0.6984 -0.7157 -74.3372 550.9897)" gradientUnits="userSpaceOnUse">
			<stop  offset="0" style="stop-color:#FFFFFF"/>
			<stop  offset="0.2256" style="stop-color:#FBFBFB"/>
			<stop  offset="0.3781" style="stop-color:#F2F2F3"/>
			<stop  offset="0.5089" style="stop-color:#E5E6E7"/>
			<stop  offset="0.6276" style="stop-color:#D3D5D6"/>
			<stop  offset="0.7381" style="stop-color:#BCBEC0"/>
			<stop  offset="0.8424" style="stop-color:#A0A3A5"/>
			<stop  offset="0.9401" style="stop-color:#828487"/>
			<stop  offset="1" style="stop-color:#6D6E71"/>
		</radialGradient>
		<circle fill="url(#SVGID_5_)" cx="461.929" cy="223.341" r="30.842"/>
		<path fill="#FFFFFF" d="M439.41,236.701c0,0,7.156,14.744,24.139,12.355c16.983-2.387,22.908-17.288,22.908-17.288
			S459.285,256.962,439.41,236.701z"/>
		
			<radialGradient id="SVGID_6_" cx="156.6182" cy="540.5293" r="26.5435" gradientTransform="matrix(0.7157 0.6984 0.6984 -0.7157 -74.3372 550.9897)" gradientUnits="userSpaceOnUse">
			<stop  offset="0" style="stop-color:#FFFFFF"/>
			<stop  offset="0.2256" style="stop-color:#FBFBFB"/>
			<stop  offset="0.3781" style="stop-color:#F2F2F3"/>
			<stop  offset="0.5089" style="stop-color:#E5E6E7"/>
			<stop  offset="0.6276" style="stop-color:#D3D5D6"/>
			<stop  offset="0.7381" style="stop-color:#BCBEC0"/>
			<stop  offset="0.8424" style="stop-color:#A0A3A5"/>
			<stop  offset="0.9401" style="stop-color:#828487"/>
			<stop  offset="1" style="stop-color:#6D6E71"/>
		</radialGradient>
		<circle fill="url(#SVGID_6_)" cx="415.26" cy="273.515" r="26.543"/>
		<path fill="#FFFFFF" d="M395.88,285.015c0,0,6.159,12.688,20.777,10.631c14.614-2.053,19.716-14.879,19.716-14.879
			S412.984,302.451,395.88,285.015z"/>
		
			<radialGradient id="SVGID_7_" cx="156.8828" cy="480.5254" r="21.5889" gradientTransform="matrix(0.7157 0.6984 0.6984 -0.7157 -74.3372 550.9897)" gradientUnits="userSpaceOnUse">
			<stop  offset="0" style="stop-color:#FFFFFF"/>
			<stop  offset="0.2256" style="stop-color:#FBFBFB"/>
			<stop  offset="0.3781" style="stop-color:#F2F2F3"/>
			<stop  offset="0.5089" style="stop-color:#E5E6E7"/>
			<stop  offset="0.6276" style="stop-color:#D3D5D6"/>
			<stop  offset="0.7381" style="stop-color:#BCBEC0"/>
			<stop  offset="0.8424" style="stop-color:#A0A3A5"/>
			<stop  offset="0.9401" style="stop-color:#828487"/>
			<stop  offset="1" style="stop-color:#6D6E71"/>
		</radialGradient>
		<circle fill="url(#SVGID_7_)" cx="373.542" cy="316.645" r="21.589"/>
		<path fill="#FFFFFF" d="M357.778,325.998c0,0,5.009,10.319,16.898,8.647c11.889-1.67,16.035-12.102,16.035-12.102
			S371.69,340.179,357.778,325.998z"/>
		
			<linearGradient id="SVGID_8_" gradientUnits="userSpaceOnUse" x1="201.9878" y1="378.1768" x2="307.22" y2="438.9326" gradientTransform="matrix(0.7108 0.7035 0.7035 -0.7108 -95.2305 360.287)">
			<stop  offset="0" style="stop-color:#86888A"/>
			<stop  offset="0.0324" style="stop-color:#939598"/>
			<stop  offset="0.1059" style="stop-color:#AEB0B2"/>
			<stop  offset="0.1873" style="stop-color:#C6C8CA"/>
			<stop  offset="0.2772" style="stop-color:#DADBDC"/>
			<stop  offset="0.3792" style="stop-color:#E9EAEB"/>
			<stop  offset="0.5002" style="stop-color:#F4F4F5"/>
			<stop  offset="0.659" style="stop-color:#FCFCFC"/>
			<stop  offset="1" style="stop-color:#FFFFFF"/>
		</linearGradient>
		<path fill="url(#SVGID_8_)" d="M458.405,145.873l1.795,10.826c0,0-128.2,48.301-176.216,194.396
			C283.984,351.094,304.881,217.138,458.405,145.873z"/>
		<g>
			
				<linearGradient id="SVGID_9_" gradientUnits="userSpaceOnUse" x1="268.2886" y1="406.0391" x2="340.3931" y2="406.0391" gradientTransform="matrix(0.4852 0.7666 0.6906 -0.4371 -56.1403 386.0235)">
				<stop  offset="0" style="stop-color:#00001C"/>
				<stop  offset="0.1404" style="stop-color:#000021"/>
				<stop  offset="0.2711" style="stop-color:#00002B"/>
				<stop  offset="0.3981" style="stop-color:#080739"/>
				<stop  offset="0.5228" style="stop-color:#161949"/>
				<stop  offset="0.6458" style="stop-color:#22275B"/>
				<stop  offset="0.7676" style="stop-color:#2F3671"/>
				<stop  offset="0.8859" style="stop-color:#3C4589"/>
				<stop  offset="1" style="stop-color:#4A55A5"/>
			</linearGradient>
			<path fill="url(#SVGID_9_)" d="M424.099,371.925l-92.101,56.494c0,0,13.052,25.594-16.607,76.432
				C315.391,504.851,430.029,483.984,424.099,371.925z"/>
			<path fill="#6D6E71" d="M423.293,370.652l4.288,0.152c0,0,23.091,111.021-117.016,138.018l4.016-5.247
				C314.581,503.575,425.547,488.49,423.293,370.652z"/>
		</g>
		<g>
			
				<linearGradient id="SVGID_10_" gradientUnits="userSpaceOnUse" x1="493.6445" y1="401.209" x2="565.7529" y2="401.209" gradientTransform="matrix(-0.7971 -0.4332 0.3904 -0.7181 514.3456 838.3286)">
				<stop  offset="0" style="stop-color:#00001C"/>
				<stop  offset="0.1404" style="stop-color:#000021"/>
				<stop  offset="0.2711" style="stop-color:#00002B"/>
				<stop  offset="0.3981" style="stop-color:#080739"/>
				<stop  offset="0.5228" style="stop-color:#161949"/>
				<stop  offset="0.6458" style="stop-color:#22275B"/>
				<stop  offset="0.7676" style="stop-color:#2F3671"/>
				<stop  offset="0.8859" style="stop-color:#3C4589"/>
				<stop  offset="1" style="stop-color:#4A55A5"/>
			</linearGradient>
			<path fill="url(#SVGID_10_)" d="M315.064,264.064l-50.259,95.646c0,0-26.405-11.324-75.162,21.644
				C189.643,381.354,202.858,265.583,315.064,264.064z"/>
			<path fill="#6D6E71" d="M316.385,264.785l-0.436-4.27c0,0-112.308-15.671-129.949,125.917l4.97-4.354
				C190.97,382.078,198.656,270.353,316.385,264.785z"/>
		</g>
		
			<linearGradient id="SVGID_11_" gradientUnits="userSpaceOnUse" x1="102.4839" y1="300.4111" x2="188.6108" y2="449.5874" gradientTransform="matrix(0.6805 0.831 0.7775 -0.7209 -182.1842 614.0339)">
			<stop  offset="0" style="stop-color:#FFF680"/>
			<stop  offset="0.0055" style="stop-color:#FFF47E"/>
			<stop  offset="0.1028" style="stop-color:#FFE25B"/>
			<stop  offset="0.2022" style="stop-color:#FFD63C"/>
			<stop  offset="0.3032" style="stop-color:#FFCD23"/>
			<stop  offset="0.4069" style="stop-color:#FEC812"/>
			<stop  offset="0.5174" style="stop-color:#FDC70C"/>
			<stop  offset="0.8508" style="stop-color:#F15A29"/>
			<stop  offset="1" style="stop-color:#BE1E2D"/>
		</linearGradient>
		<path fill="url(#SVGID_11_)" d="M259.607,395.906c0,0-14.221,7.354-38.326,8.209c-24.106,0.85-35.111,8.094-36.177,23.551
			c-1.062,15.459,4.761-1.879,15.889-5.701c11.129-3.82,17.92,6.221,3.64,11.867c-14.284,5.645-49.335,15.447-50.278,34.33
			c-0.942,18.881-0.64,27.436-0.578,29.147c0.06,1.712,16.224-41.694,27.958-28.401s-5.762,19.049-12.009,24.41
			c-6.248,5.362-4.701,3.594-12.253,17.567c-7.552,13.974-13.797,19.336-18.558,21.215c-4.761,1.884-7.914,3.707-7.914,3.707
			s19.465,4.455,25.592-4.33c6.125-8.784,5.459-27.604,21.53-28.174c6.43-0.229-2.97,6.957-4.52,8.728
			c-1.546,1.766-4.399,12.146-2.61,17.227c1.79,5.076,1.366-6.902,17.377-9.182c16.009-2.279,20.831-2.451,25.227-14.601
			c4.398-12.147,13.314-33.022,18.076-34.905c4.757-1.884,11.128-3.818,11.25-0.398c0.12,3.424-17.438,7.471-16.893,22.871
			c0.543,15.402,2.212,17.059,2.212,17.059s-3.517-8.444,9.095-15.741c12.615-7.302,11.19-2.111,25.23-14.601
			c14.04-12.488,28.08-24.979,29.385-33.594c1.307-8.613,1.123-13.748,1.123-13.748l-9.399,7.188l-1.85-6.789l-12.554,9.013
			l4.397-12.148l-18.922,10.951l10.585-19.225l-7.915,3.705l4.519-8.726l-15.89,5.701l10.828-12.379l-8.036,0.287L259.607,395.906z"
			/>
	</g>
</g>
</svg>
