<?xml version="1.0" encoding="utf-8"?>
<!-- Generator: Adobe Illustrator 15.0.0, SVG Export Plug-In . SVG Version: 6.00 Build 0)  -->
<!DOCTYPE svg PUBLIC "-//W3C//DTD SVG 1.1//EN" "http://www.w3.org/Graphics/SVG/1.1/DTD/svg11.dtd">
<svg version="1.1" id="Layer_14" xmlns="http://www.w3.org/2000/svg" xmlns:xlink="http://www.w3.org/1999/xlink" x="0px" y="0px"
	 width="720px" height="720px" viewBox="0 0 720 720" enable-background="new 0 0 720 720" xml:space="preserve">
<g>
	<path fill="#FFFFFF" d="M161.227,399.013c0,0,9.802-4.202,11.903-6.3c2.1-2.104,17.503,16.802,17.503,16.802s-1.4,6.303-2.8,8.403
		c-1.4,2.101-29.407,11.202-29.407,11.202L161.227,399.013z"/>
	<g>
		
			<linearGradient id="SVGID_1_" gradientUnits="userSpaceOnUse" x1="190.4209" y1="282.8369" x2="190.2729" y2="301.2089" gradientTransform="matrix(0.6774 0.688 0.7126 -0.7016 -151.0104 472.7751)">
			<stop  offset="0" style="stop-color:#4A55A5"/>
			<stop  offset="0.0371" style="stop-color:#454F99"/>
			<stop  offset="0.1375" style="stop-color:#384081"/>
			<stop  offset="0.2427" style="stop-color:#2B316A"/>
			<stop  offset="0.3507" style="stop-color:#1F2456"/>
			<stop  offset="0.4622" style="stop-color:#131646"/>
			<stop  offset="0.5783" style="stop-color:#060437"/>
			<stop  offset="0.701" style="stop-color:#00002A"/>
			<stop  offset="0.8347" style="stop-color:#000020"/>
			<stop  offset="1" style="stop-color:#00001C"/>
		</linearGradient>
		<path fill="url(#SVGID_1_)" d="M177.96,377.81l28.878,29.333l-11.748,7.333c-12.896-4.204-19.939-11.359-24.651-25.035
			L177.96,377.81z"/>
		
			<linearGradient id="SVGID_2_" gradientUnits="userSpaceOnUse" x1="32.5928" y1="379.0254" x2="125.4033" y2="379.0254" gradientTransform="matrix(0.7157 0.6984 0.6984 -0.7157 -74.3372 550.9897)">
			<stop  offset="0" style="stop-color:#A7A9AC"/>
			<stop  offset="0.0806" style="stop-color:#8A8C8F"/>
			<stop  offset="0.1692" style="stop-color:#717275"/>
			<stop  offset="0.2596" style="stop-color:#5B5C5E"/>
			<stop  offset="0.3516" style="stop-color:#4A4A4C"/>
			<stop  offset="0.4461" style="stop-color:#3F3F40"/>
			<stop  offset="0.5468" style="stop-color:#383839"/>
			<stop  offset="0.6316" style="stop-color:#3F3E40"/>
			<stop  offset="0.7098" style="stop-color:#4A4A4C"/>
			<stop  offset="0.7854" style="stop-color:#5B5C5E"/>
			<stop  offset="0.8594" style="stop-color:#707174"/>
			<stop  offset="0.9316" style="stop-color:#898B8E"/>
			<stop  offset="1" style="stop-color:#A7A9AC"/>
		</linearGradient>
		<path fill="url(#SVGID_2_)" d="M329.01,295.552c-2.664-0.111-17.779-1.146-29.14-12.218
			c-12.458-12.143-15.979-21.786-16.473-30.627c-82.355,30.456-109.372,122.006-109.372,122.006
			c8.352,25.727,36.17,37.767,36.17,37.767C285.363,377.005,316.59,330.556,329.01,295.552z"/>
		
			<linearGradient id="SVGID_3_" gradientUnits="userSpaceOnUse" x1="205.5229" y1="330.4668" x2="242.7607" y2="367.7045" gradientTransform="matrix(0.7108 0.7035 0.7035 -0.7108 -95.2305 360.287)">
			<stop  offset="0" style="stop-color:#4A55A5"/>
			<stop  offset="0.0661" style="stop-color:#454F9A"/>
			<stop  offset="0.4134" style="stop-color:#2C336C"/>
			<stop  offset="0.695" style="stop-color:#151848"/>
			<stop  offset="0.8971" style="stop-color:#00002C"/>
			<stop  offset="1" style="stop-color:#00001C"/>
		</linearGradient>
		<path fill="url(#SVGID_3_)" d="M329.172,295.387c9.807-32.702,6.115-49.9,5.887-51.442c-18.771,0.34-35.766,3.238-51.811,8.396
			c0.382,2.302-1.171,14.494,15.243,30.739C313.427,297.859,326.556,295.346,329.172,295.387z"/>
		
			<radialGradient id="SVGID_4_" cx="79.5693" cy="429.8252" r="17.0732" gradientTransform="matrix(0.7157 0.6984 0.6984 -0.7157 -74.3372 550.9897)" gradientUnits="userSpaceOnUse">
			<stop  offset="0" style="stop-color:#FFFFFF"/>
			<stop  offset="0.2256" style="stop-color:#FBFBFB"/>
			<stop  offset="0.3781" style="stop-color:#F2F2F3"/>
			<stop  offset="0.5089" style="stop-color:#E5E6E7"/>
			<stop  offset="0.6276" style="stop-color:#D3D5D6"/>
			<stop  offset="0.7381" style="stop-color:#BCBEC0"/>
			<stop  offset="0.8424" style="stop-color:#A0A3A5"/>
			<stop  offset="0.9401" style="stop-color:#828487"/>
			<stop  offset="1" style="stop-color:#6D6E71"/>
		</radialGradient>
		<circle fill="url(#SVGID_4_)" cx="282.801" cy="298.936" r="17.073"/>
		<path fill="#FFFFFF" d="M270.335,306.33c0,0,3.962,8.162,13.361,6.839c9.402-1.322,12.682-9.57,12.682-9.57
			S281.336,317.546,270.335,306.33z"/>
		
			<radialGradient id="SVGID_5_" cx="80.4775" cy="391.9053" r="14.6924" gradientTransform="matrix(0.7157 0.6984 0.6984 -0.7157 -74.3372 550.9897)" gradientUnits="userSpaceOnUse">
			<stop  offset="0" style="stop-color:#FFFFFF"/>
			<stop  offset="0.2256" style="stop-color:#FBFBFB"/>
			<stop  offset="0.3781" style="stop-color:#F2F2F3"/>
			<stop  offset="0.5089" style="stop-color:#E5E6E7"/>
			<stop  offset="0.6276" style="stop-color:#D3D5D6"/>
			<stop  offset="0.7381" style="stop-color:#BCBEC0"/>
			<stop  offset="0.8424" style="stop-color:#A0A3A5"/>
			<stop  offset="0.9401" style="stop-color:#828487"/>
			<stop  offset="1" style="stop-color:#6D6E71"/>
		</radialGradient>
		<circle fill="url(#SVGID_5_)" cx="256.967" cy="326.709" r="14.692"/>
		<path fill="#FFFFFF" d="M246.239,333.077c0,0,3.409,7.022,11.501,5.883c8.089-1.137,10.914-8.234,10.914-8.234
			S255.708,342.728,246.239,333.077z"/>
		
			<radialGradient id="SVGID_6_" cx="80.624" cy="358.6885" r="11.9512" gradientTransform="matrix(0.7157 0.6984 0.6984 -0.7157 -74.3372 550.9897)" gradientUnits="userSpaceOnUse">
			<stop  offset="0" style="stop-color:#FFFFFF"/>
			<stop  offset="0.2256" style="stop-color:#FBFBFB"/>
			<stop  offset="0.3781" style="stop-color:#F2F2F3"/>
			<stop  offset="0.5089" style="stop-color:#E5E6E7"/>
			<stop  offset="0.6276" style="stop-color:#D3D5D6"/>
			<stop  offset="0.7381" style="stop-color:#BCBEC0"/>
			<stop  offset="0.8424" style="stop-color:#A0A3A5"/>
			<stop  offset="0.9401" style="stop-color:#828487"/>
			<stop  offset="1" style="stop-color:#6D6E71"/>
		</radialGradient>
		<circle fill="url(#SVGID_6_)" cx="233.874" cy="350.585" r="11.952"/>
		<path fill="#FFFFFF" d="M225.146,355.76c0,0,2.773,5.713,9.355,4.789c6.58-0.924,8.876-6.7,8.876-6.7
			S232.848,363.612,225.146,355.76z"/>
		
			<linearGradient id="SVGID_7_" gradientUnits="userSpaceOnUse" x1="209.3013" y1="380.0039" x2="209.3013" y2="341.1899" gradientTransform="matrix(0.7108 0.7035 0.7035 -0.7108 -95.2305 360.287)">
			<stop  offset="0" style="stop-color:#FFFFFF"/>
			<stop  offset="0.2801" style="stop-color:#FBFBFB"/>
			<stop  offset="0.443" style="stop-color:#F3F3F4"/>
			<stop  offset="0.5758" style="stop-color:#E7E8E9"/>
			<stop  offset="0.6923" style="stop-color:#D6D8D9"/>
			<stop  offset="0.7983" style="stop-color:#C1C3C5"/>
			<stop  offset="0.8966" style="stop-color:#A7A9AB"/>
			<stop  offset="0.9873" style="stop-color:#8A8C8F"/>
			<stop  offset="1" style="stop-color:#86888A"/>
		</linearGradient>
		<path fill="url(#SVGID_7_)" d="M286.263,254.073l0.736,4.438c2.296-0.939,29.643-12.701,43.035-12.02
			C328.615,246.504,305.977,245.728,286.263,254.073z"/>
		
			<linearGradient id="SVGID_8_" gradientUnits="userSpaceOnUse" x1="171.4521" y1="248.0342" x2="229.7042" y2="281.666" gradientTransform="matrix(0.7108 0.7035 0.7035 -0.7108 -95.2305 360.287)">
			<stop  offset="0" style="stop-color:#86888A"/>
			<stop  offset="0.0324" style="stop-color:#939598"/>
			<stop  offset="0.1059" style="stop-color:#AEB0B2"/>
			<stop  offset="0.1873" style="stop-color:#C6C8CA"/>
			<stop  offset="0.2772" style="stop-color:#DADBDC"/>
			<stop  offset="0.3792" style="stop-color:#E9EAEB"/>
			<stop  offset="0.5002" style="stop-color:#F4F4F5"/>
			<stop  offset="0.659" style="stop-color:#FCFCFC"/>
			<stop  offset="1" style="stop-color:#FFFFFF"/>
		</linearGradient>
		<path fill="url(#SVGID_8_)" d="M280.851,256.052l0.994,5.993c0,0-70.967,26.738-97.546,107.609
			C184.299,369.653,195.866,295.5,280.851,256.052z"/>
		<g>
			
				<linearGradient id="SVGID_9_" gradientUnits="userSpaceOnUse" x1="182.0249" y1="276.7529" x2="221.937" y2="276.7529" gradientTransform="matrix(0.4852 0.7666 0.6906 -0.4371 -56.1403 386.0235)">
				<stop  offset="0" style="stop-color:#00001C"/>
				<stop  offset="0.1404" style="stop-color:#000021"/>
				<stop  offset="0.2711" style="stop-color:#00002B"/>
				<stop  offset="0.3981" style="stop-color:#080739"/>
				<stop  offset="0.5228" style="stop-color:#161949"/>
				<stop  offset="0.6458" style="stop-color:#22275B"/>
				<stop  offset="0.7676" style="stop-color:#2F3671"/>
				<stop  offset="0.8859" style="stop-color:#3C4589"/>
				<stop  offset="1" style="stop-color:#4A55A5"/>
			</linearGradient>
			<path fill="url(#SVGID_9_)" d="M261.859,381.183l-50.981,31.276c0,0,7.224,14.167-9.193,42.308
				C201.683,454.767,265.143,443.216,261.859,381.183z"/>
			<path fill="#6D6E71" d="M261.412,380.479l2.375,0.087c0,0,12.783,61.454-64.776,76.399l2.223-2.903
				C201.234,454.062,262.661,445.71,261.412,380.479z"/>
		</g>
		<g>
			
				<linearGradient id="SVGID_10_" gradientUnits="userSpaceOnUse" x1="574.1445" y1="317.6494" x2="614.0605" y2="317.6494" gradientTransform="matrix(-0.7971 -0.4332 0.3904 -0.7181 514.3456 838.3286)">
				<stop  offset="0" style="stop-color:#00001C"/>
				<stop  offset="0.1404" style="stop-color:#000021"/>
				<stop  offset="0.2711" style="stop-color:#00002B"/>
				<stop  offset="0.3981" style="stop-color:#080739"/>
				<stop  offset="0.5228" style="stop-color:#161949"/>
				<stop  offset="0.6458" style="stop-color:#22275B"/>
				<stop  offset="0.7676" style="stop-color:#2F3671"/>
				<stop  offset="0.8859" style="stop-color:#3C4589"/>
				<stop  offset="1" style="stop-color:#4A55A5"/>
			</linearGradient>
			<path fill="url(#SVGID_10_)" d="M201.502,321.478l-27.822,52.946c0,0-14.616-6.267-41.606,11.98
				C132.074,386.404,139.39,322.319,201.502,321.478z"/>
			<path fill="#6D6E71" d="M202.233,321.876l-0.24-2.363c0,0-62.169-8.675-71.935,69.701l2.751-2.407
				C132.809,386.807,137.063,324.958,202.233,321.876z"/>
		</g>
		
			<linearGradient id="SVGID_11_" gradientUnits="userSpaceOnUse" x1="58.3965" y1="303.5112" x2="106.4775" y2="386.7901" gradientTransform="matrix(0.6805 0.831 0.7775 -0.7209 -182.1842 614.0339)">
			<stop  offset="0" style="stop-color:#FFF680"/>
			<stop  offset="0.0055" style="stop-color:#FFF47E"/>
			<stop  offset="0.1028" style="stop-color:#FFE25B"/>
			<stop  offset="0.2022" style="stop-color:#FFD63C"/>
			<stop  offset="0.3032" style="stop-color:#FFCD23"/>
			<stop  offset="0.4069" style="stop-color:#FEC812"/>
			<stop  offset="0.5174" style="stop-color:#FDC70C"/>
			<stop  offset="0.8508" style="stop-color:#F15A29"/>
			<stop  offset="1" style="stop-color:#BE1E2D"/>
		</linearGradient>
		<path fill="url(#SVGID_11_)" d="M170.804,394.462c0,0-7.872,4.071-21.216,4.542s-19.435,4.481-20.026,13.037
			c-0.587,8.556,2.636-1.04,8.795-3.155c6.16-2.113,9.919,3.441,2.014,6.57c-7.906,3.123-27.31,8.55-27.831,19.004
			c-0.522,10.451-0.354,15.187-0.32,16.134c0.033,0.948,8.981-23.083,15.476-15.723c6.496,7.358-3.189,10.547-6.647,13.515
			c-3.458,2.966-2.603,1.988-6.783,9.724c-4.181,7.733-7.637,10.702-10.273,11.745c-2.635,1.04-4.381,6.627-4.381,6.627
			s10.776-2.109,14.167-6.976c3.391-4.86,3.021-15.279,11.918-15.592c3.559-0.131-1.645,3.847-2.501,4.827
			c-0.857,0.978-2.437,6.727-1.445,9.536c0.991,2.811,0.756-3.82,9.619-5.084c8.862-1.26,11.531-1.355,13.964-8.078
			c2.436-6.727,7.37-18.283,10.007-19.323c2.634-1.043,6.16-2.115,6.228-0.221c0.066,1.893-9.654,4.134-9.352,12.659
			c0.3,8.526,1.225,9.444,1.225,9.444s-1.946-4.676,5.035-8.717c6.983-4.038,6.194-1.168,13.967-8.082
			c7.772-6.91,15.544-13.824,16.267-18.593c0.723-4.771,0.621-7.61,0.621-7.61l-5.203,3.979l-1.023-3.758l-6.948,4.988l2.433-6.726
			l-10.473,6.061l5.859-10.639l-4.381,2.051l2.502-4.831l-8.796,3.156l5.995-6.852l-4.449,0.158L170.804,394.462z"/>
		<g>
			<path fill="#101023" d="M428.878,336.47l-3.937-0.759c0-0.076-0.029-0.154-0.086-0.231c-0.06-0.078-0.168-0.137-0.324-0.175
				c-0.98-0.468-1.919-0.779-2.818-0.934c-0.902-0.154-1.801-0.232-2.702-0.232s-1.812,0.078-2.73,0.232
				c-0.921,0.154-1.872,0.312-2.851,0.466c-0.273-0.154-0.518-0.34-0.734-0.553c-0.215-0.213-0.402-0.456-0.558-0.729
				c-0.157-0.27-0.292-0.554-0.41-0.844c-0.118-0.291-0.255-0.612-0.412-0.963c-0.235-0.777-0.411-1.604-0.529-2.477
				c-0.116-0.875-0.175-1.779-0.175-2.71c0-0.933,0.059-1.855,0.175-2.769c0.118-0.913,0.274-1.797,0.47-2.652
				c0.273-0.349,0.599-0.678,0.971-0.99c0.37-0.31,0.783-0.583,1.232-0.816c0.45-0.234,0.949-0.408,1.498-0.525
				c0.547-0.116,1.133-0.116,1.763,0c0.272,0.079,0.509,0.195,0.704,0.35c0.195,0.155,0.372,0.341,0.527,0.554
				c0.158,0.213,0.295,0.447,0.412,0.699c0.117,0.255,0.234,0.507,0.354,0.759c0.115,0.252,0.225,0.515,0.322,0.787
				c0.098,0.271,0.207,0.535,0.321,0.787c0.119,0.253,0.245,0.496,0.384,0.729c0.137,0.233,0.322,0.447,0.557,0.64
				c0.941,0.739,1.998,1.38,3.174,1.924c1.175,0.546,2.397,0.971,3.669,1.284c1.274,0.311,2.585,0.485,3.935,0.523
				c1.352,0.04,2.672-0.077,3.967-0.349c0.546-0.155,1.096-0.34,1.645-0.554c0.547-0.213,1.066-0.486,1.556-0.816
				c0.489-0.329,0.93-0.708,1.322-1.136c0.39-0.427,0.685-0.932,0.882-1.515c0.038-0.505,0.038-1.029,0-1.574
				c-0.039-0.543-0.148-1.079-0.324-1.603c-0.176-0.525-0.422-0.993-0.733-1.399c-0.315-0.408-0.725-0.708-1.233-0.903
				c-0.668-0.039-1.322-0.146-1.967-0.32c-0.646-0.176-1.283-0.369-1.908-0.583c-0.629-0.214-1.234-0.446-1.821-0.699
				c-0.587-0.252-1.156-0.476-1.704-0.671c-1.176-0.271-2.35-0.563-3.523-0.875c-1.174-0.31-2.35-0.64-3.523-0.991
				c-1.178-0.348-2.32-0.756-3.438-1.223c-1.115-0.467-2.201-0.992-3.258-1.574c-0.04-0.233-0.139-0.428-0.293-0.583
				c-0.158-0.154-0.322-0.291-0.5-0.409c-0.175-0.115-0.352-0.241-0.528-0.377c-0.175-0.137-0.343-0.301-0.499-0.497
				c-0.197-0.348-0.41-0.659-0.646-0.932c-0.235-0.27-0.462-0.532-0.677-0.786c-0.215-0.253-0.422-0.524-0.615-0.817
				c-0.198-0.291-0.353-0.629-0.471-1.019c-0.433-1.32-0.646-2.643-0.646-3.965c0-1.319,0.176-2.603,0.528-3.845
				c0.354-1.243,0.862-2.419,1.528-3.525c0.664-1.108,1.429-2.09,2.289-2.943c0.312-0.234,0.637-0.496,0.969-0.788
				c0.334-0.292,0.665-0.602,1-0.932c0.333-0.33,0.666-0.66,0.998-0.991c0.33-0.33,0.693-0.632,1.086-0.904
				c0.352,0,0.695-0.048,1.027-0.145c0.332-0.097,0.665-0.213,0.998-0.35c0.332-0.136,0.666-0.271,0.999-0.408
				c0.331-0.135,0.695-0.243,1.086-0.32c0.665-0.233,1.351-0.398,2.056-0.496c0.705-0.096,1.409-0.145,2.115-0.145
				c0.703,0,1.417,0.04,2.142,0.116c0.724,0.078,1.46,0.175,2.204,0.291c0.743,0.117,1.488,0.243,2.232,0.378
				c0.742,0.138,1.478,0.263,2.203,0.379c0.722,0.117,1.446,0.204,2.172,0.263c0.727,0.057,1.44,0.068,2.145,0.028
				c0.271-0.154,0.597-0.252,0.969-0.291c0.373-0.039,0.742-0.028,1.115,0.029c0.372,0.059,0.736,0.156,1.088,0.291
				c0.352,0.137,0.705,0.282,1.055,0.438c0.197,0.079,0.346,0.195,0.441,0.35c0.098,0.156,0.178,0.311,0.234,0.467
				c0.061,0.155,0.127,0.311,0.207,0.466c0.076,0.156,0.215,0.291,0.41,0.408c0.352,0.895,0.605,1.786,0.766,2.68
				c0.156,0.894,0.264,1.798,0.322,2.711s0.078,1.836,0.059,2.769c-0.021,0.932-0.029,1.866-0.029,2.799
				c-0.078,0.387-0.166,0.767-0.264,1.136c-0.102,0.37-0.234,0.719-0.412,1.048c-0.176,0.331-0.402,0.603-0.674,0.815
				c-0.275,0.214-0.629,0.321-1.061,0.321c-0.781,0.232-1.465,0.341-2.054,0.32c-0.588-0.02-1.128-0.136-1.614-0.349
				c-0.491-0.214-0.933-0.505-1.322-0.875c-0.393-0.369-0.756-0.788-1.088-1.253s-0.654-0.961-0.968-1.486
				c-0.313-0.524-0.638-1.039-0.97-1.545c-0.333-0.504-0.685-0.979-1.058-1.427c-0.372-0.447-0.793-0.845-1.263-1.196
				c-0.471,0-0.949-0.036-1.439-0.116c-0.49-0.076-0.979-0.154-1.469-0.232c-0.49-0.077-0.979-0.166-1.467-0.262
				c-0.491-0.098-0.98-0.186-1.473-0.263c-0.488-0.079-0.975-0.126-1.466-0.146c-0.491-0.019-0.968,0.011-1.439,0.088
				c-0.469,0.079-0.931,0.193-1.38,0.349c-0.452,0.156-0.893,0.371-1.322,0.642c-0.508,0.311-0.941,0.699-1.291,1.165
				c-0.354,0.468-0.627,0.992-0.822,1.575c-0.198,0.583-0.293,1.195-0.293,1.835c0,0.642,0.096,1.293,0.293,1.953
				c0.39,0.699,0.841,1.264,1.35,1.69c0.51,0.427,1.077,0.777,1.704,1.049c0.625,0.271,1.302,0.485,2.026,0.641
				s1.457,0.33,2.203,0.523c0.547,0.196,1.125,0.37,1.731,0.526c0.606,0.155,1.243,0.329,1.909,0.524
				c0.665,0.195,1.322,0.398,1.967,0.612c0.646,0.215,1.281,0.457,1.908,0.728c0.939,0.116,1.851,0.312,2.732,0.584
				c0.881,0.271,1.73,0.602,2.556,0.99c0.821,0.39,1.604,0.837,2.349,1.341c0.744,0.505,1.41,1.048,1.996,1.63
				c0.314,0.196,0.588,0.438,0.822,0.729c0.234,0.292,0.461,0.603,0.676,0.933c0.215,0.33,0.434,0.661,0.646,0.991
				c0.215,0.33,0.422,0.651,0.617,0.961c0.115,0.778,0.232,1.583,0.352,2.418c0.119,0.837,0.195,1.671,0.236,2.507
				c0.037,0.837-0.021,1.671-0.176,2.505c-0.158,0.837-0.471,1.663-0.941,2.478c-0.508,0.895-1.078,1.779-1.701,2.652
				c-0.627,0.875-1.334,1.69-2.117,2.449c-0.783,0.758-1.653,1.426-2.613,2.01c-0.959,0.583-2.025,1.012-3.199,1.284
				c-0.824,0.27-1.676,0.485-2.557,0.64c-0.881,0.155-1.754,0.271-2.611,0.349c-0.861,0.08-1.733,0.127-2.615,0.146
				C430.61,336.461,429.737,336.47,428.878,336.47z"/>
			<path fill="#101023" d="M455.953,349.643c-0.432-0.232-0.832-0.447-1.203-0.641c-0.373-0.195-0.814-0.41-1.322-0.641
				c-0.352-0.311-0.549-0.662-0.586-1.049c-0.039-0.389,0-0.797,0.117-1.225c0.115-0.426,0.252-0.867,0.412-1.311
				c0.154-0.447,0.232-0.904,0.232-1.371c0.273-0.311,0.561-0.563,0.852-0.758c0.293-0.194,0.617-0.37,0.971-0.524
				c0.35-0.155,0.73-0.292,1.145-0.408c0.41-0.115,0.83-0.254,1.264-0.407c0.352-0.854,0.586-1.807,0.703-2.858
				c0.117-1.048,0.195-2.136,0.236-3.264c0.037-1.126,0.055-2.272,0.055-3.438s0.082-2.291,0.236-3.38
				c-0.115-1.244-0.176-2.564-0.176-3.965c0-1.398,0.021-2.835,0.061-4.313c0.037-1.476,0.088-2.963,0.146-4.459
				c0.059-1.495,0.066-2.963,0.029-4.401c-0.078-0.387-0.207-0.699-0.383-0.932c-0.178-0.233-0.4-0.445-0.676-0.639
				c-0.275-0.195-0.57-0.351-0.881-0.469c-0.312-0.116-0.637-0.223-0.971-0.319c-0.332-0.098-0.666-0.205-0.998-0.32
				c-0.332-0.117-0.646-0.263-0.939-0.438c-0.293-0.176-0.551-0.369-0.764-0.583c-0.217-0.213-0.381-0.495-0.498-0.845
				c0-0.35-0.012-0.709-0.033-1.078c-0.018-0.369-0.018-0.729,0-1.078c0.021-0.35,0.09-0.68,0.209-0.991
				c0.115-0.312,0.332-0.602,0.646-0.875c1.055-0.349,2.172-0.631,3.346-0.844c1.176-0.213,2.357-0.35,3.555-0.409
				c1.193-0.058,2.379-0.02,3.553,0.117c1.174,0.136,2.27,0.379,3.291,0.729c0.664-0.467,1.369-0.846,2.113-1.137
				c0.742-0.292,1.527-0.516,2.348-0.67c0.824-0.155,1.676-0.281,2.555-0.381c0.879-0.096,1.771-0.164,2.672-0.202
				c1.645,0.039,3.326,0.291,5.053,0.757c1.721,0.466,3.424,1.129,5.109,1.982c0.939,0.428,1.838,0.954,2.701,1.574
				c0.859,0.623,1.654,1.321,2.379,2.098c0.725,0.778,1.371,1.643,1.939,2.594c0.566,0.954,1.027,1.973,1.379,3.061
				c0,0.155,0.031,0.319,0.088,0.495c0.061,0.174,0.129,0.359,0.207,0.554c0.078,0.196,0.146,0.398,0.205,0.612
				c0.059,0.214,0.09,0.436,0.09,0.669c0.115,0.894,0.195,1.829,0.232,2.799c0.041,0.97,0.01,1.933-0.086,2.885
				c-0.102,0.953-0.305,1.865-0.617,2.74c-0.316,0.874-0.805,1.642-1.471,2.302c-0.469,1.048-1.055,1.982-1.762,2.798
				c-0.705,0.816-1.486,1.554-2.35,2.214c-0.859,0.662-1.771,1.273-2.729,1.835c-0.961,0.563-1.949,1.079-2.967,1.545
				c-1.215,0.039-2.447,0.087-3.701,0.146c-1.254,0.058-2.504,0.066-3.758,0.027c-1.254-0.038-2.486-0.175-3.701-0.408
				c-1.213-0.231-2.369-0.64-3.465-1.222c-0.115-0.078-0.285-0.137-0.498-0.176c-0.217-0.038-0.432-0.059-0.646-0.059
				c-0.217,0-0.432,0.021-0.646,0.059c-0.215,0.039-0.42,0.099-0.615,0.176c0,0.738,0.01,1.466,0.027,2.185
				c0.02,0.72,0.041,1.429,0.059,2.129c0.021,0.698,0.021,1.417,0,2.155c-0.018,0.738-0.066,1.497-0.145,2.273
				c0.705,0.233,1.438,0.397,2.203,0.496c0.762,0.097,1.518,0.193,2.26,0.292c0.744,0.096,1.459,0.252,2.145,0.467
				c0.684,0.212,1.303,0.514,1.85,0.902c0.312,0.31,0.557,0.66,0.734,1.049c0.176,0.39,0.293,0.796,0.352,1.224
				c0.059,0.426,0.076,0.865,0.059,1.311c-0.021,0.447-0.088,0.846-0.207,1.197c-0.312,0.035-0.586,0.135-0.82,0.289
				c-0.234,0.156-0.469,0.342-0.703,0.555c-0.236,0.213-0.48,0.408-0.734,0.582c-0.258,0.176-0.578,0.301-0.971,0.381
				c-2.898,0.154-5.846,0.23-8.84,0.23C461.912,349.643,458.93,349.643,455.953,349.643z M472.928,325.103
				c0.627,0,1.264-0.008,1.908-0.027c0.646-0.021,1.301-0.05,1.967-0.088c0.666-0.039,1.32-0.089,1.969-0.146
				c0.646-0.059,1.291-0.155,1.938-0.292c0.646-0.136,1.264-0.311,1.85-0.524c0.586-0.213,1.135-0.466,1.645-0.758
				c0.51-0.291,0.979-0.631,1.41-1.02c0.432-0.39,0.803-0.835,1.113-1.341c0.197-0.116,0.395-0.232,0.59-0.349
				c0.195-0.117,0.361-0.242,0.498-0.379c0.139-0.135,0.244-0.291,0.324-0.466c0.078-0.175,0.098-0.379,0.059-0.613
				c0-0.543-0.021-1.115-0.059-1.718c-0.041-0.602-0.117-1.194-0.234-1.778c-0.119-0.583-0.283-1.135-0.502-1.662
				c-0.213-0.523-0.516-1-0.91-1.428c-0.35-0.232-0.693-0.514-1.025-0.844c-0.334-0.33-0.678-0.641-1.029-0.933
				c-0.352-0.291-0.725-0.554-1.113-0.787c-0.393-0.232-0.863-0.369-1.412-0.407c-1.096-0.427-2.213-0.689-3.348-0.787
				c-1.135-0.098-2.242-0.038-3.318,0.175c-1.076,0.214-2.086,0.574-3.025,1.079c-0.938,0.504-1.723,1.128-2.348,1.865
				c-0.551,0.467-0.969,1.031-1.262,1.692c-0.295,0.661-0.48,1.35-0.561,2.068c-0.08,0.718-0.08,1.449,0,2.187
				c0.078,0.738,0.215,1.478,0.412,2.215c0.508,1.166,1.115,2.166,1.82,3.002C470.988,323.87,471.869,324.562,472.928,325.103z"/>
			<path fill="#101023" d="M513.926,336.062c-1.139-0.078-2.232-0.263-3.293-0.553c-1.055-0.293-2.062-0.672-3.025-1.138
				c-0.959-0.468-1.887-0.991-2.789-1.574c-0.902-0.582-1.76-1.183-2.584-1.807c-0.117-0.311-0.254-0.593-0.41-0.846
				c-0.158-0.251-0.324-0.513-0.5-0.786c-0.178-0.271-0.344-0.535-0.5-0.788c-0.156-0.251-0.305-0.504-0.438-0.758
				c-0.141-0.252-0.258-0.524-0.355-0.815c-0.096-0.292-0.166-0.583-0.203-0.875c-0.041-0.291-0.041-0.6,0-0.931
				c0.037-0.33,0.139-0.689,0.293-1.079c0.273-1.283,0.664-2.439,1.174-3.468c0.51-1.029,1.117-1.943,1.822-2.739
				c0.705-0.797,1.518-1.487,2.436-2.07c0.922-0.582,1.949-1.068,3.084-1.457c0.666-0.311,1.332-0.555,2-0.729
				c0.662-0.176,1.34-0.32,2.023-0.437c0.686-0.115,1.369-0.195,2.057-0.233c0.684-0.038,1.379-0.058,2.086-0.058
				c0.705,0,1.408,0.01,2.113,0.028c0.705,0.021,1.41,0.03,2.113,0.03c0.709,0,1.4-0.009,2.088-0.03
				c0.686-0.018,1.359-0.066,2.025-0.145c0.078-0.116,0.119-0.271,0.119-0.467c0-0.193-0.023-0.389-0.061-0.582
				c-0.039-0.194-0.1-0.398-0.178-0.612c-0.078-0.213-0.176-0.398-0.293-0.554c-0.393-0.232-0.791-0.486-1.203-0.758
				c-0.41-0.271-0.832-0.505-1.264-0.699c-0.432-0.193-0.9-0.33-1.41-0.408c-0.51-0.078-1.055-0.038-1.643,0.116
				c-0.668-0.037-1.373-0.028-2.115,0.029c-0.744,0.059-1.498,0.146-2.264,0.263c-0.762,0.116-1.523,0.232-2.289,0.35
				c-0.764,0.115-1.51,0.204-2.23,0.262c-0.727,0.059-1.441,0.067-2.146,0.029c-0.703-0.039-1.369-0.155-1.994-0.349
				c-0.629-0.195-1.223-0.497-1.793-0.904c-0.566-0.408-1.066-0.962-1.498-1.662c-0.08-0.232-0.107-0.495-0.088-0.786
				c0.02-0.291,0.068-0.584,0.146-0.875c0.076-0.292,0.176-0.583,0.295-0.874c0.115-0.292,0.254-0.573,0.41-0.845
				c0.471-0.467,1.016-0.854,1.643-1.166c0.627-0.31,1.283-0.573,1.969-0.787c0.684-0.214,1.4-0.37,2.143-0.468
				c0.744-0.096,1.449-0.184,2.115-0.262c2.779-0.466,5.551-0.562,8.311-0.292c2.76,0.272,5.492,1.01,8.191,2.215
				c0.822,0.504,1.588,1.128,2.293,1.864c0.705,0.74,1.311,1.575,1.818,2.507c0.51,0.932,0.904,1.945,1.176,3.031
				c0.275,1.088,0.393,2.234,0.354,3.438c0.193,0.545,0.342,1.078,0.439,1.603s0.148,1.048,0.148,1.574
				c0,0.524-0.021,1.047-0.062,1.574c-0.037,0.524-0.078,1.049-0.115,1.574c-0.039,0.524-0.08,1.06-0.119,1.604
				c-0.039,0.545-0.059,1.078-0.059,1.602c0,0.524,0.029,1.06,0.09,1.603c0.059,0.545,0.186,1.108,0.381,1.69
				c0.234,0.233,0.52,0.429,0.852,0.584c0.332,0.156,0.666,0.283,0.998,0.379c0.332,0.098,0.686,0.174,1.057,0.232
				c0.371,0.058,0.756,0.145,1.146,0.262c0.234,0.04,0.418,0.127,0.557,0.263c0.139,0.137,0.242,0.303,0.324,0.496
				c0.076,0.194,0.145,0.398,0.205,0.612c0.059,0.214,0.146,0.418,0.264,0.612c0.039,0.389,0.039,0.757,0,1.106
				c-0.037,0.35-0.127,0.7-0.264,1.05c-0.139,0.348-0.314,0.669-0.529,0.961s-0.48,0.555-0.793,0.787
				c-1.018,0.232-2.076,0.446-3.17,0.642c-1.098,0.194-2.193,0.33-3.289,0.406c-1.098,0.079-2.166,0.05-3.203-0.087
				s-1.986-0.417-2.846-0.846c-0.941,0.157-1.883,0.381-2.822,0.672c-0.938,0.292-1.9,0.563-2.877,0.815
				c-0.979,0.254-1.969,0.458-2.967,0.612C516.01,336.102,514.98,336.139,513.926,336.062z M510.637,326.911
				c1.174,0.077,2.408,0.067,3.699-0.029s2.564-0.292,3.818-0.582c1.252-0.292,2.455-0.69,3.611-1.197
				c1.154-0.505,2.203-1.108,3.143-1.807c-0.156-0.27-0.342-0.513-0.559-0.728c-0.217-0.213-0.471-0.388-0.764-0.525
				c-0.293-0.135-0.607-0.261-0.941-0.378c-0.332-0.117-0.674-0.204-1.025-0.263c-0.352-0.059-0.717-0.116-1.088-0.175
				c-0.373-0.058-0.732-0.116-1.084-0.174c-0.354-0.059-0.709-0.117-1.059-0.177c-0.354-0.057-0.666-0.144-0.941-0.262
				c-0.781,0.116-1.604,0.271-2.465,0.466c-0.861,0.194-1.684,0.429-2.465,0.699c-0.785,0.273-1.51,0.603-2.176,0.992
				c-0.666,0.389-1.193,0.836-1.586,1.339c-0.078,0.351-0.057,0.653,0.061,0.903c0.115,0.254,0.271,0.477,0.469,0.671
				c0.195,0.195,0.422,0.39,0.676,0.583C510.215,326.465,510.439,326.678,510.637,326.911z"/>
			<path fill="#101023" d="M561.852,336.177c-0.744-0.153-1.5-0.281-2.262-0.378c-0.764-0.097-1.555-0.185-2.379-0.263
				c-0.744-0.31-1.508-0.593-2.289-0.845c-0.785-0.253-1.578-0.515-2.383-0.788c-0.801-0.27-1.592-0.571-2.377-0.902
				c-0.785-0.33-1.549-0.729-2.291-1.194c-0.783-0.39-1.459-0.904-2.025-1.545c-0.568-0.64-1.068-1.349-1.5-2.126
				c-0.432-0.778-0.812-1.613-1.143-2.506c-0.336-0.894-0.641-1.787-0.912-2.682c-0.117-1.282-0.176-2.603-0.176-3.964
				c0-1.358,0.098-2.709,0.295-4.05c0.193-1.341,0.537-2.622,1.025-3.847c0.49-1.224,1.145-2.321,1.967-3.292
				c0.119-0.428,0.295-0.817,0.529-1.167s0.498-0.68,0.793-0.991c0.293-0.31,0.605-0.632,0.939-0.961
				c0.332-0.33,0.635-0.709,0.912-1.136c0.508-0.195,0.977-0.429,1.408-0.699c0.432-0.271,0.852-0.556,1.264-0.846
				c0.41-0.291,0.84-0.572,1.291-0.843c0.449-0.271,0.971-0.486,1.559-0.642c0.508-0.077,1.016-0.153,1.525-0.233
				c0.51-0.077,1.006-0.125,1.498-0.145c0.488-0.019,0.988-0.019,1.498,0c0.508,0.022,1.035,0.088,1.584,0.205
				c1.373,0.272,2.77,0.487,4.203,0.64c1.428,0.156,2.857,0.292,4.285,0.409c1.43,0.116,2.84,0.225,4.229,0.32
				c1.389,0.098,2.732,0.225,4.025,0.378c0.43,0.896,0.732,1.848,0.91,2.857c0.176,1.011,0.271,2.032,0.293,3.061
				c0.02,1.029-0.039,2.059-0.176,3.088c-0.141,1.031-0.305,2.07-0.502,3.119c-0.193,0.233-0.391,0.524-0.586,0.875
				c-0.197,0.349-0.432,0.679-0.705,0.991c-0.273,0.311-0.607,0.563-0.998,0.759c-0.393,0.195-0.881,0.271-1.469,0.233
				c-0.59-0.272-1.088-0.632-1.498-1.079c-0.41-0.446-0.773-0.942-1.086-1.488c-0.314-0.543-0.609-1.115-0.883-1.718
				c-0.273-0.602-0.588-1.196-0.939-1.778c-0.43-0.62-0.979-1.118-1.643-1.487c-0.668-0.368-1.393-0.66-2.176-0.874
				c-0.783-0.214-1.613-0.359-2.494-0.437c-0.883-0.079-1.734-0.137-2.557-0.176c-0.979-0.037-1.857,0.088-2.643,0.38
				c-0.783,0.292-1.508,0.669-2.174,1.136c-0.666,0.467-1.293,1.01-1.879,1.631c-0.586,0.623-1.154,1.244-1.703,1.865
				c-0.352,0.856-0.609,1.73-0.764,2.624c-0.158,0.893-0.236,1.788-0.236,2.681c0,0.895,0.109,1.788,0.322,2.682
				c0.217,0.894,0.539,1.769,0.971,2.622c0.352,0.583,0.812,1.078,1.381,1.487c0.566,0.408,1.205,0.766,1.908,1.078
				c0.705,0.312,1.449,0.555,2.234,0.728c0.781,0.176,1.562,0.283,2.348,0.321c1.176,0,2.418-0.058,3.729-0.174
				c1.312-0.117,2.623-0.311,3.936-0.584c1.311-0.27,2.584-0.631,3.818-1.078c1.234-0.447,2.338-1.041,3.318-1.778
				c0.354-0.232,0.744-0.33,1.174-0.291c0.432,0.039,0.9,0.116,1.412,0.232c0.271,0.117,0.559,0.263,0.852,0.437
				c0.291,0.176,0.557,0.389,0.791,0.641c0.236,0.253,0.449,0.535,0.646,0.844c0.193,0.312,0.334,0.663,0.41,1.049
				c-0.037,0.816-0.166,1.555-0.383,2.215c-0.215,0.662-0.518,1.252-0.91,1.778c-0.391,0.524-0.85,0.991-1.379,1.398
				c-0.529,0.409-1.125,0.769-1.791,1.078c-1.02,0.43-2.105,0.856-3.262,1.284c-1.154,0.428-2.338,0.788-3.551,1.078
				c-1.215,0.292-2.43,0.515-3.643,0.671C564.16,336.217,562.984,336.257,561.852,336.177z"/>
			<path fill="#101023" d="M600.908,336.121c-0.781-0.117-1.555-0.282-2.318-0.496s-1.527-0.438-2.291-0.671
				c-0.766-0.233-1.537-0.466-2.32-0.699c-0.783-0.232-1.586-0.447-2.408-0.641c-0.512-0.271-1.02-0.573-1.525-0.903
				c-0.512-0.329-1.01-0.689-1.498-1.079c-0.49-0.388-0.961-0.806-1.41-1.253c-0.451-0.448-0.852-0.942-1.203-1.488
				c-0.395-0.737-0.814-1.495-1.266-2.274c-0.449-0.775-0.861-1.582-1.232-2.417c-0.373-0.836-0.676-1.699-0.91-2.596
				c-0.234-0.891-0.352-1.825-0.352-2.796c0.037-1.204,0.166-2.418,0.381-3.643s0.547-2.399,0.998-3.526
				c0.451-1.126,1.008-2.175,1.676-3.147c0.664-0.97,1.449-1.807,2.35-2.506c0.586-0.7,1.232-1.33,1.936-1.894
				c0.705-0.562,1.479-1.066,2.32-1.516c0.842-0.445,1.734-0.844,2.674-1.194c0.938-0.349,1.918-0.641,2.936-0.875
				c0.9-0.077,1.801-0.154,2.701-0.234c0.902-0.077,1.791-0.095,2.672-0.058c0.883,0.039,1.754,0.137,2.617,0.292
				c0.857,0.156,1.738,0.43,2.639,0.815c1.176,0.312,2.234,0.739,3.174,1.283c0.938,0.545,1.811,1.175,2.611,1.895
				c0.805,0.719,1.566,1.485,2.291,2.302c0.727,0.816,1.441,1.654,2.145,2.507c0.549,0.894,1.027,1.835,1.439,2.826
				c0.41,0.991,0.744,2.021,0.998,3.089c0.254,1.069,0.412,2.148,0.471,3.235c0.059,1.088-0.012,2.196-0.207,3.322
				c-0.938,0.193-1.859,0.331-2.758,0.407c-0.902,0.079-1.82,0.127-2.762,0.146c-0.939,0.021-1.879,0.048-2.818,0.088
				c-0.941,0.038-1.9,0.116-2.877,0.232c-1.49,0.078-2.977,0.078-4.465,0s-2.965-0.165-4.434-0.264
				c-1.471-0.097-2.939-0.164-4.408-0.203s-2.906,0.02-4.316,0.175c0.078,0.349,0.236,0.661,0.471,0.931
				c0.234,0.272,0.5,0.535,0.793,0.788c0.293,0.253,0.59,0.496,0.881,0.728c0.295,0.234,0.539,0.506,0.736,0.817
				c1.174,0.737,2.445,1.243,3.814,1.514c1.371,0.273,2.771,0.399,4.201,0.379c1.43-0.018,2.859-0.165,4.287-0.435
				c1.428-0.272,2.771-0.584,4.023-0.934c0.822-0.194,1.674-0.379,2.555-0.553c0.881-0.175,1.754-0.282,2.613-0.321
				c0.861-0.039,1.693,0.039,2.496,0.232s1.537,0.583,2.203,1.166c0.117,0.466,0.197,0.933,0.234,1.398
				c0.039,0.466,0.039,0.924,0,1.37c-0.037,0.448-0.137,0.896-0.293,1.341c-0.156,0.447-0.393,0.884-0.705,1.312
				c-0.432,0.543-0.998,0.953-1.703,1.223c-0.705,0.271-1.488,0.408-2.348,0.408c-1.293,0.349-2.586,0.68-3.875,0.992
				c-1.295,0.311-2.594,0.583-3.91,0.814c-1.311,0.233-2.604,0.408-3.875,0.523C603.482,336.177,602.201,336.199,600.908,336.121z
				 M597.092,314.03c1.018-0.116,2.057-0.165,3.113-0.145c1.057,0.019,2.123,0.039,3.201,0.058c1.076,0.021,2.133-0.009,3.17-0.088
				c1.037-0.078,2.049-0.251,3.025-0.524c0.039-0.117,0.1-0.292,0.178-0.525c-0.236-0.388-0.527-0.766-0.881-1.136
				c-0.354-0.369-0.824-0.651-1.41-0.845c-0.549-0.661-1.195-1.136-1.939-1.428c-0.742-0.291-1.547-0.475-2.406-0.555
				c-0.863-0.076-1.734-0.086-2.615-0.029c-0.883,0.06-1.732,0.127-2.555,0.205c-0.471,0.312-0.949,0.594-1.438,0.845
				c-0.49,0.253-0.951,0.524-1.381,0.815c-0.432,0.292-0.822,0.613-1.176,0.962c-0.354,0.35-0.607,0.739-0.764,1.167
				c0.193,0.349,0.459,0.582,0.795,0.7c0.33,0.116,0.682,0.185,1.055,0.204c0.371,0.021,0.734,0.039,1.086,0.059
				C596.504,313.791,596.816,313.876,597.092,314.03z"/>
			<path fill="#101023" d="M359.637,431.406c-0.588-0.154-1.186-0.281-1.792-0.379c-0.607-0.098-1.224-0.164-1.849-0.205
				c-0.628-0.037-1.255-0.057-1.88-0.057c-0.628,0-1.254-0.012-1.88-0.031c-0.627-0.018-1.243-0.057-1.849-0.115
				c-0.608-0.057-1.204-0.145-1.791-0.264c-0.588-0.117-1.167-0.277-1.733-0.494c-0.568-0.213-1.125-0.498-1.674-0.844
				c-0.276-0.154-0.471-0.352-0.587-0.584c-0.118-0.234-0.188-0.494-0.206-0.787c-0.022-0.291,0-0.592,0.058-0.902
				c0.06-0.311,0.107-0.623,0.147-0.934c0.195-0.543,0.45-0.971,0.764-1.281c0.312-0.311,0.703-0.564,1.173-0.76
				c0.274-0.309,0.606-0.545,0.999-0.699c0.391-0.156,0.792-0.281,1.203-0.379c0.412-0.096,0.824-0.232,1.234-0.406
				c0.413-0.176,0.754-0.439,1.027-0.787c0.39-1.09,0.646-2.283,0.764-3.586c0.117-1.301,0.186-2.623,0.207-3.965
				c0.018-1.34,0.008-2.699-0.032-4.078c-0.04-1.381-0.04-2.711,0-3.992c-0.078-0.506-0.117-0.992-0.117-1.461
				c0-0.465,0.117-0.93,0.352-1.4c-0.195-0.424-0.322-0.873-0.381-1.338c-0.059-0.465-0.1-0.951-0.117-1.457
				c-0.023-0.504-0.011-1.002,0.027-1.484c0.039-0.486,0.067-0.982,0.089-1.488c0.019-0.504,0.027-1.02,0.027-1.545
				c0-0.523-0.019-1.029-0.057-1.514c-0.041-0.484-0.14-0.971-0.294-1.457c-0.158-0.486-0.353-0.941-0.588-1.371
				c-0.313-0.154-0.617-0.273-0.91-0.35c-0.293-0.078-0.607-0.146-0.94-0.205c-0.332-0.059-0.657-0.117-0.97-0.176
				s-0.627-0.123-0.939-0.201c-0.431-0.35-0.803-0.738-1.117-1.168c-0.313-0.426-0.538-0.893-0.676-1.398
				c-0.137-0.506-0.187-1.049-0.146-1.633c0.038-0.58,0.176-1.184,0.411-1.805c0.196-0.311,0.431-0.574,0.705-0.785
				c0.272-0.217,0.568-0.4,0.881-0.557s0.646-0.271,0.998-0.348c0.352-0.08,0.715-0.148,1.087-0.205
				c0.37-0.059,0.755-0.105,1.145-0.146c0.391-0.039,0.784-0.076,1.174-0.117c0.392-0.037,0.772-0.086,1.146-0.143
				c0.371-0.061,0.712-0.166,1.027-0.322c1.097,0,2.241-0.018,3.435-0.059c1.197-0.037,2.41-0.066,3.643-0.088
				c1.234-0.02,2.486-0.02,3.76,0c1.271,0.021,2.516,0.068,3.729,0.146c1.212,0.078,2.476,0.164,3.789,0.262
				c1.31,0.098,2.612,0.273,3.905,0.523c1.292,0.254,2.525,0.623,3.699,1.109c1.176,0.482,2.232,1.117,3.173,1.893
				c0.978,0.623,1.818,1.4,2.523,2.332c0.706,0.934,1.272,1.982,1.703,3.146c0.433,1.168,0.728,2.402,0.882,3.703
				c0.155,1.301,0.155,2.611,0,3.934c-0.193,1.129-0.52,2.205-0.969,3.232c-0.449,1.031-1,1.994-1.645,2.887
				c-0.646,0.893-1.372,1.729-2.174,2.506c-0.803,0.779-1.654,1.498-2.553,2.158c-0.078,0.115-0.129,0.262-0.146,0.436
				c-0.023,0.176-0.011,0.352,0.027,0.525c0.039,0.176,0.098,0.348,0.178,0.523c0.078,0.178,0.154,0.322,0.233,0.438
				c0.433,0.271,0.831,0.594,1.204,0.963s0.716,0.766,1.027,1.195c0.312,0.426,0.626,0.863,0.941,1.309
				c0.312,0.449,0.686,0.846,1.114,1.197c0.588,0.971,1.265,1.826,2.027,2.562c0.764,0.74,1.575,1.428,2.438,2.07
				c0.859,0.641,1.758,1.264,2.701,1.867c0.938,0.602,1.879,1.234,2.818,1.893c0.115,0.352,0.205,0.75,0.267,1.197
				c0.058,0.445,0.077,0.912,0.058,1.398c-0.021,0.484-0.108,0.941-0.264,1.369c-0.158,0.428-0.414,0.797-0.766,1.107
				c-0.627,0.582-1.342,0.971-2.143,1.166c-0.803,0.195-1.645,0.291-2.526,0.291s-1.772-0.068-2.673-0.203s-1.74-0.242-2.523-0.32
				c-0.08-0.039-0.167-0.098-0.266-0.174c-0.098-0.078-0.178-0.168-0.234-0.264c-0.059-0.1-0.1-0.215-0.119-0.35
				s-0.008-0.283,0.03-0.438c0.081-0.234,0.03-0.408-0.146-0.523c-0.178-0.117-0.383-0.213-0.617-0.293
				c-0.234-0.543-0.499-1.049-0.793-1.512c-0.295-0.471-0.606-0.914-0.941-1.342c-0.332-0.428-0.685-0.836-1.055-1.225
				c-0.373-0.389-0.744-0.777-1.117-1.166c-0.373-0.391-0.744-0.777-1.115-1.166c-0.372-0.391-0.723-0.795-1.057-1.225
				c-0.332-0.428-0.638-0.873-0.91-1.338c-0.274-0.469-0.529-0.973-0.764-1.518c-0.549-0.582-1.117-1.107-1.703-1.574
				c-0.588-0.465-1.186-0.902-1.791-1.311c-0.607-0.408-1.254-0.807-1.939-1.195c-0.684-0.387-1.379-0.777-2.084-1.164
				c-0.587,0.037-1.202,0.037-1.852,0c-0.646-0.039-1.282-0.051-1.906-0.031c-0.627,0.021-1.235,0.107-1.822,0.262
				c-0.587,0.156-1.096,0.432-1.525,0.816c0.117,0.662,0.146,1.303,0.086,1.924c-0.057,0.623-0.126,1.254-0.205,1.895
				c-0.08,0.641-0.127,1.281-0.146,1.924c-0.021,0.641,0.049,1.311,0.205,2.012c0.234,0.23,0.488,0.428,0.764,0.582
				c0.273,0.154,0.568,0.293,0.88,0.408c0.313,0.115,0.637,0.203,0.97,0.262c0.331,0.061,0.676,0.115,1.027,0.176
				c0.354,0.059,0.704,0.107,1.059,0.145c0.351,0.039,0.703,0.098,1.055,0.178c0.353,0.076,0.695,0.164,1.027,0.262
				c0.333,0.098,0.637,0.24,0.912,0.436c0.154,0.273,0.282,0.625,0.382,1.051c0.097,0.426,0.165,0.863,0.206,1.311
				c0.037,0.445,0.008,0.902-0.09,1.369s-0.284,0.875-0.558,1.223c-0.47,0.664-1.048,1.146-1.731,1.457
				c-0.686,0.312-1.43,0.535-2.232,0.672c-0.805,0.137-1.627,0.213-2.467,0.23C361.23,431.281,360.419,431.33,359.637,431.406z
				 M363.217,403.953c1.295,0.08,2.565,0.059,3.82-0.059c1.251-0.115,2.466-0.291,3.64-0.523c0.627-0.35,1.265-0.66,1.91-0.932
				c0.646-0.273,1.271-0.543,1.879-0.818c0.606-0.271,1.184-0.582,1.732-0.932c0.548-0.348,1.019-0.775,1.409-1.283
				c0.117-0.074,0.255-0.143,0.412-0.201c0.156-0.061,0.283-0.117,0.381-0.178c0.099-0.059,0.185-0.133,0.265-0.23
				c0.079-0.098,0.098-0.205,0.06-0.32c0-1.168-0.178-2.195-0.529-3.09c-0.352-0.893-0.881-1.613-1.587-2.156
				c-0.431-0.273-0.86-0.475-1.292-0.613c-0.432-0.135-0.851-0.27-1.264-0.408c-0.411-0.135-0.822-0.264-1.233-0.379
				c-0.411-0.117-0.831-0.271-1.263-0.465c-0.822-0.117-1.654-0.213-2.496-0.293c-0.843-0.076-1.686-0.115-2.526-0.115
				s-1.665,0.039-2.466,0.115c-0.803,0.08-1.578,0.232-2.321,0.469c-0.392,0.971-0.616,1.961-0.677,2.969
				c-0.059,1.012-0.037,2.033,0.061,3.062s0.225,2.051,0.382,3.061c0.155,1.012,0.253,2,0.292,2.973
				c0.079,0.078,0.165,0.127,0.266,0.146c0.098,0.02,0.214,0.027,0.352,0.027c0.139,0,0.273,0,0.41,0
				C362.973,403.779,363.102,403.836,363.217,403.953z"/>
			<path fill="#101023" d="M415.963,431.406c-1.061-0.311-2.117-0.613-3.173-0.904c-1.058-0.289-2.077-0.611-3.054-0.961
				c-0.98-0.35-1.92-0.76-2.82-1.225s-1.703-1.029-2.406-1.689c-0.552-0.584-1.117-1.145-1.705-1.689
				c-0.586-0.545-1.154-1.119-1.703-1.721s-1.027-1.271-1.439-2.012c-0.41-0.736-0.695-1.611-0.852-2.621
				c-0.193-1.205-0.263-2.477-0.205-3.818c0.059-1.34,0.235-2.67,0.529-3.992c0.295-1.322,0.704-2.584,1.232-3.789
				c0.529-1.203,1.166-2.291,1.91-3.266c0.312-0.387,0.636-0.803,0.969-1.252c0.332-0.447,0.637-0.941,0.91-1.488
				c0.626-0.191,1.174-0.473,1.645-0.844c0.471-0.369,0.931-0.758,1.381-1.166c0.449-0.406,0.91-0.816,1.379-1.223
				c0.473-0.41,1.02-0.73,1.645-0.963c2.035-0.66,4.133-1,6.285-1.02s4.346,0.301,6.578,0.961c1.176,0.43,2.26,0.895,3.259,1.4
				c1.001,0.506,1.929,1.068,2.79,1.688c0.86,0.627,1.677,1.314,2.438,2.072c0.764,0.758,1.459,1.623,2.086,2.594
				c0.861,1.088,1.507,2.293,1.938,3.613c0.433,1.32,0.686,2.711,0.765,4.168c0.079,1.459,0.009,2.924-0.206,4.4
				s-0.559,2.896-1.029,4.254c-0.195,0.08-0.332,0.205-0.41,0.381c-0.078,0.174-0.136,0.369-0.177,0.582
				c-0.037,0.213-0.087,0.428-0.145,0.639c-0.061,0.217-0.187,0.4-0.382,0.557c-0.314,0.428-0.628,0.826-0.939,1.193
				c-0.314,0.371-0.639,0.73-0.971,1.078c-0.332,0.35-0.676,0.691-1.027,1.021s-0.725,0.67-1.115,1.02
				c-0.979,0.621-2.017,1.205-3.115,1.748c-1.096,0.547-2.242,1-3.436,1.369c-1.191,0.369-2.417,0.643-3.67,0.816
				C418.468,431.494,417.213,431.521,415.963,431.406z M417.077,423.072c0.938-0.078,1.898-0.205,2.878-0.379
				c0.979-0.178,1.909-0.428,2.791-0.76c0.881-0.328,1.682-0.756,2.408-1.281c0.723-0.525,1.281-1.193,1.672-2.01
				c0.59-0.738,0.973-1.496,1.146-2.275c0.176-0.775,0.244-1.562,0.206-2.361c-0.041-0.795-0.146-1.592-0.324-2.387
				c-0.175-0.797-0.321-1.566-0.438-2.307c-0.472-0.387-0.939-0.758-1.41-1.104c-0.471-0.35-0.971-0.701-1.498-1.051
				c-0.527-0.348-1.068-0.67-1.613-0.963c-0.549-0.291-1.117-0.543-1.706-0.756c-0.586-0.215-1.193-0.389-1.82-0.525
				c-0.628-0.137-1.263-0.213-1.907-0.232c-0.646-0.02-1.312,0.027-1.998,0.143c-0.688,0.119-1.381,0.312-2.086,0.584
				c-0.822,0.311-1.566,0.701-2.23,1.168c-0.668,0.467-1.245,1.01-1.732,1.633c-0.491,0.621-0.91,1.309-1.264,2.066
				c-0.353,0.758-0.627,1.566-0.822,2.422c-0.08,0.543-0.109,1.047-0.088,1.514c0.02,0.467,0.098,0.916,0.233,1.34
				c0.139,0.43,0.303,0.826,0.499,1.195c0.196,0.371,0.421,0.729,0.676,1.08c0.256,0.346,0.52,0.678,0.793,0.99
				c0.274,0.311,0.559,0.621,0.854,0.932c0.292,0.311,0.586,0.621,0.878,0.932c0.296,0.311,0.56,0.621,0.794,0.932
				c0.431,0.195,0.861,0.361,1.293,0.498c0.43,0.137,0.861,0.252,1.293,0.348c0.43,0.098,0.861,0.195,1.293,0.291
				C416.275,422.85,416.686,422.953,417.077,423.072z"/>
			<path fill="#101023" d="M458.367,431.756c-0.744-0.154-1.498-0.281-2.262-0.379s-1.555-0.186-2.379-0.262
				c-0.744-0.312-1.508-0.592-2.289-0.848c-0.783-0.252-1.578-0.514-2.381-0.785s-1.596-0.572-2.379-0.902
				c-0.783-0.332-1.547-0.729-2.291-1.197c-0.785-0.387-1.459-0.902-2.027-1.543c-0.566-0.641-1.064-1.35-1.496-2.127
				s-0.814-1.611-1.145-2.508c-0.334-0.893-0.639-1.787-0.91-2.68c-0.119-1.283-0.177-2.604-0.177-3.965
				c0-1.359,0.097-2.709,0.294-4.049c0.193-1.342,0.536-2.623,1.027-3.85c0.488-1.223,1.145-2.318,1.966-3.291
				c0.118-0.428,0.294-0.816,0.53-1.166c0.232-0.352,0.498-0.68,0.792-0.992c0.293-0.309,0.606-0.631,0.938-0.963
				c0.333-0.326,0.639-0.709,0.912-1.133c0.508-0.195,0.977-0.432,1.408-0.701s0.854-0.555,1.264-0.844
				c0.41-0.293,0.84-0.574,1.293-0.844c0.447-0.273,0.967-0.486,1.557-0.643c0.508-0.076,1.018-0.154,1.525-0.234
				c0.51-0.074,1.006-0.123,1.498-0.145c0.488-0.018,0.99-0.018,1.498,0c0.51,0.021,1.037,0.088,1.586,0.205
				c1.371,0.27,2.77,0.486,4.201,0.641c1.43,0.156,2.857,0.291,4.285,0.408c1.43,0.117,2.84,0.225,4.23,0.32
				c1.387,0.098,2.73,0.223,4.021,0.379c0.432,0.895,0.734,1.848,0.91,2.855c0.178,1.012,0.273,2.033,0.297,3.061
				c0.018,1.031-0.041,2.061-0.178,3.09c-0.139,1.029-0.305,2.068-0.5,3.117c-0.195,0.236-0.391,0.527-0.588,0.875
				c-0.197,0.35-0.432,0.678-0.705,0.99s-0.607,0.564-0.998,0.76s-0.881,0.271-1.469,0.232c-0.588-0.271-1.086-0.631-1.498-1.078
				c-0.41-0.445-0.771-0.943-1.086-1.488c-0.314-0.541-0.609-1.113-0.883-1.719c-0.271-0.6-0.586-1.195-0.939-1.777
				c-0.43-0.619-0.979-1.117-1.643-1.486c-0.668-0.369-1.391-0.658-2.174-0.873c-0.785-0.217-1.615-0.359-2.498-0.438
				c-0.881-0.076-1.732-0.137-2.555-0.176c-0.979-0.037-1.857,0.088-2.641,0.381c-0.787,0.291-1.508,0.668-2.176,1.135
				c-0.666,0.467-1.291,1.01-1.879,1.633c-0.588,0.621-1.154,1.242-1.703,1.865c-0.352,0.854-0.607,1.73-0.764,2.621
				c-0.158,0.895-0.236,1.789-0.236,2.682c0,0.895,0.107,1.789,0.324,2.682c0.215,0.895,0.537,1.77,0.971,2.621
				c0.352,0.584,0.811,1.08,1.377,1.488c0.568,0.408,1.205,0.768,1.91,1.078c0.707,0.312,1.449,0.555,2.232,0.727
				c0.783,0.178,1.564,0.285,2.35,0.322c1.176,0,2.418-0.059,3.729-0.174c1.312-0.117,2.625-0.312,3.936-0.584
				c1.312-0.27,2.586-0.633,3.818-1.078s2.34-1.039,3.318-1.779c0.354-0.232,0.744-0.328,1.174-0.289
				c0.434,0.037,0.9,0.113,1.412,0.232c0.273,0.115,0.557,0.262,0.852,0.438c0.295,0.174,0.557,0.385,0.793,0.639
				c0.232,0.254,0.449,0.535,0.643,0.846c0.197,0.311,0.334,0.66,0.412,1.047c-0.037,0.816-0.166,1.557-0.381,2.213
				c-0.217,0.664-0.518,1.256-0.91,1.781c-0.393,0.523-0.852,0.992-1.381,1.396c-0.527,0.412-1.125,0.77-1.793,1.08
				c-1.016,0.43-2.104,0.855-3.258,1.281c-1.156,0.43-2.34,0.789-3.555,1.08c-1.213,0.289-2.426,0.516-3.641,0.67
				C460.676,431.795,459.502,431.838,458.367,431.756z"/>
			<path fill="#101023" d="M513.342,431.988c-0.938-0.15-1.898-0.242-2.877-0.262s-1.961-0.078-2.938-0.174
				c-0.98-0.1-1.938-0.264-2.879-0.496c-0.939-0.234-1.859-0.643-2.76-1.225c-0.236-0.389-0.393-0.814-0.471-1.281
				s-0.088-0.932-0.029-1.4c0.061-0.467,0.188-0.922,0.383-1.371c0.195-0.445,0.412-0.822,0.646-1.133
				c-0.551-0.547-1.066-1.111-1.559-1.693c-0.488-0.58-1.018-1.127-1.584-1.631c-0.568-0.504-1.164-0.98-1.791-1.428
				c-0.629-0.445-1.334-0.824-2.115-1.137c-0.115-0.115-0.217-0.164-0.295-0.143c-0.078,0.02-0.166,0.057-0.264,0.113
				c-0.1,0.059-0.195,0.141-0.293,0.234c-0.1,0.098-0.207,0.164-0.324,0.205c-0.08,0.932-0.107,1.875-0.088,2.826
				s0.039,1.924,0.061,2.914c0.018,0.99,0,1.98-0.061,2.971c-0.059,0.992-0.205,1.994-0.439,3.002
				c-0.9,0.039-1.85,0.117-2.848,0.234c-1,0.115-2.02,0.225-3.055,0.32c-1.037,0.1-2.086,0.166-3.143,0.203
				c-1.057,0.039-2.096-0.018-3.113-0.174c-0.59-0.115-1.049-0.33-1.381-0.643c-0.332-0.307-0.598-0.689-0.793-1.135
				c-0.195-0.447-0.332-0.932-0.41-1.457s-0.139-1.057-0.176-1.604c0.195-0.543,0.459-0.988,0.793-1.34
				c0.332-0.348,0.732-0.65,1.201-0.904c0.473-0.25,0.98-0.473,1.529-0.67c0.549-0.195,1.096-0.43,1.645-0.699
				c0.232-0.391,0.43-0.807,0.586-1.254s0.273-0.912,0.352-1.398c0.078-0.484,0.129-0.992,0.148-1.518
				c0.02-0.521,0.02-1.057,0-1.602c-0.021-0.543-0.041-1.088-0.061-1.631s-0.037-1.088-0.059-1.631c-0.021-0.547-0.021-1.08,0-1.604
				c0.021-0.525,0.049-1.059,0.09-1.604c0.115-2.912,0.186-5.828,0.205-8.742c0.018-2.914,0.029-5.889,0.029-8.918
				c-0.041-0.311-0.131-0.574-0.266-0.787c-0.139-0.213-0.293-0.398-0.473-0.555c-0.172-0.154-0.381-0.291-0.613-0.406
				c-0.236-0.117-0.48-0.225-0.734-0.322c-0.256-0.096-0.5-0.184-0.734-0.26c-0.234-0.08-0.471-0.178-0.703-0.295
				c-0.236-0.115-0.441-0.252-0.617-0.406c-0.178-0.154-0.324-0.33-0.441-0.525c-0.195,0.039-0.373,0.021-0.527-0.061
				c-0.156-0.078-0.295-0.182-0.412-0.316c-0.115-0.137-0.234-0.295-0.352-0.469s-0.234-0.34-0.352-0.496
				c-0.08-0.348-0.109-0.729-0.088-1.135c0.02-0.408,0.088-0.816,0.205-1.225c0.117-0.406,0.271-0.805,0.471-1.195
				c0.193-0.387,0.41-0.736,0.643-1.047c1.02-0.545,2.105-0.914,3.262-1.107c1.152-0.195,2.32-0.264,3.494-0.205
				s2.34,0.195,3.496,0.408c1.154,0.215,2.279,0.457,3.377,0.729l0.295,22.965c0.076,0,0.174-0.012,0.291-0.029
				s0.295-0.049,0.529-0.088c0.471-0.078,0.91-0.223,1.322-0.438c0.41-0.213,0.771-0.475,1.086-0.787
				c0.312-0.309,0.576-0.641,0.795-0.99c0.213-0.35,0.359-0.699,0.436-1.049c-0.076-0.467-0.127-0.951-0.145-1.457
				c-0.02-0.504,0-1,0.061-1.488c0.061-0.486,0.186-0.951,0.381-1.398c0.195-0.445,0.471-0.863,0.822-1.254
				c1.215-0.307,2.506-0.572,3.877-0.787c1.371-0.211,2.76-0.32,4.17-0.32s2.807,0.117,4.199,0.352
				c1.387,0.232,2.73,0.621,4.023,1.166c0.393,0.232,0.693,0.533,0.91,0.904c0.213,0.367,0.381,0.775,0.5,1.223
				c0.117,0.445,0.188,0.924,0.205,1.428c0.02,0.506,0.008,0.992-0.029,1.459c-0.234,0.428-0.5,0.775-0.793,1.047
				c-0.295,0.271-0.646,0.496-1.055,0.67c-0.414,0.174-0.854,0.293-1.322,0.35c-0.471,0.059-0.98,0.105-1.527,0.145
				c-1.371,0.117-2.555,0.42-3.555,0.906c-0.998,0.484-1.898,1.086-2.703,1.805c-0.801,0.719-1.535,1.516-2.201,2.389
				c-0.666,0.875-1.312,1.76-1.938,2.652c0.273,0.467,0.625,0.914,1.057,1.34c0.43,0.43,0.898,0.855,1.41,1.281
				c0.508,0.432,1.008,0.877,1.498,1.342c0.488,0.465,0.93,0.971,1.32,1.516c0.742,0.895,1.545,1.682,2.408,2.361
				c0.861,0.678,1.791,1.254,2.791,1.721c0.998,0.467,2.064,0.863,3.201,1.193c1.135,0.33,2.33,0.592,3.582,0.785
				c0.119,0.197,0.264,0.361,0.439,0.498s0.361,0.281,0.559,0.436c0.197,0.156,0.363,0.34,0.5,0.555
				c0.135,0.215,0.225,0.475,0.266,0.785c0.076,0.586,0.047,1.109-0.09,1.576c-0.137,0.465-0.334,0.902-0.588,1.311
				c-0.254,0.406-0.559,0.777-0.91,1.107s-0.705,0.635-1.057,0.904L513.342,431.988z"/>
			<path fill="#101023" d="M572.807,431.754c-1.35-0.105-2.699-0.154-4.049-0.154s-2.75-0.02-4.203-0.053
				c-1.246-0.172-2.518-0.248-3.816-0.23c-1.297,0.016-2.596,0.023-3.891,0.023c-1.299,0-2.582-0.041-3.842-0.129
				c-1.262-0.084-2.467-0.283-3.607-0.592c-0.244-0.17-0.434-0.404-0.57-0.695c-0.141-0.291-0.191-0.574-0.156-0.852l-0.676-0.514
				c0.037-0.342,0.043-0.729,0.027-1.158c-0.02-0.43,0.01-0.9,0.078-1.418c0.344-0.412,0.74-0.746,1.193-1.006
				c0.447-0.256,0.916-0.453,1.4-0.592c0.484-0.137,1.002-0.229,1.557-0.283c0.553-0.051,1.107-0.094,1.66-0.129
				c0.555-0.033,1.125-0.061,1.715-0.076c0.588-0.018,1.158-0.061,1.715-0.129c0.551-0.07,1.094-0.162,1.633-0.283
				c0.535-0.119,1.029-0.316,1.479-0.592c0.242-0.857,0.365-1.752,0.365-2.678c0-0.928-0.027-1.873-0.08-2.834
				c-0.053-0.963-0.096-1.932-0.127-2.91c-0.037-0.979,0.014-1.967,0.152-2.961c-0.104-1.307-0.146-2.604-0.129-3.891
				c0.018-1.285,0.043-2.582,0.076-3.887c0.035-1.307,0.035-2.619,0-3.941c-0.033-1.322-0.137-2.637-0.309-3.939
				c-0.416-0.207-0.857-0.363-1.326-0.465c-0.467-0.102-0.951-0.18-1.451-0.23c-0.504-0.053-1.021-0.096-1.557-0.129
				c-0.541-0.033-1.074-0.068-1.611-0.102c-0.535-0.033-1.061-0.086-1.58-0.156c-0.52-0.066-1.033-0.18-1.533-0.334
				c-0.502-0.156-0.986-0.352-1.453-0.594c-0.467-0.24-0.891-0.551-1.271-0.926c-0.104-0.857-0.033-1.691,0.207-2.5
				c0.242-0.805,0.676-1.52,1.297-2.135c1.143-0.414,2.338-0.68,3.584-0.801c1.244-0.119,2.508-0.18,3.789-0.18
				s2.578,0.033,3.893,0.102c1.314,0.07,2.613,0.104,3.895,0.104c1.244,0,2.49-0.025,3.734-0.078
				c1.246-0.051,2.492-0.066,3.738-0.051c1.246,0.018,2.498,0.109,3.764,0.283c1.262,0.172,2.518,0.48,3.762,0.926
				c0.277,0.24,0.502,0.525,0.676,0.85c0.174,0.326,0.301,0.68,0.389,1.055c0.088,0.381,0.123,0.773,0.104,1.186
				c-0.018,0.412-0.045,0.824-0.076,1.236c-0.311,0.516-0.727,0.91-1.248,1.186c-0.518,0.273-1.07,0.473-1.66,0.594
				c-0.588,0.119-1.201,0.205-1.844,0.258c-0.641,0.049-1.252,0.109-1.842,0.18c-0.381-0.242-0.795-0.389-1.244-0.438
				c-0.451-0.053-0.908-0.053-1.375,0c-0.469,0.051-0.945,0.146-1.43,0.283s-0.969,0.271-1.453,0.412
				c-0.207,0.996-0.336,2.025-0.389,3.09s-0.07,2.148-0.053,3.244c0.018,1.1,0.033,2.225,0.053,3.373
				c0.018,1.154-0.01,2.275-0.078,3.377c0,1.27-0.01,2.523-0.025,3.76c-0.018,1.234-0.018,2.463,0,3.682s0.084,2.439,0.207,3.658
				c0.121,1.217,0.336,2.432,0.648,3.629c0.07,0.104,0.156,0.166,0.258,0.182c0.105,0.02,0.242,0.027,0.416,0.027
				c0.312,0.205,0.658,0.369,1.041,0.488c0.379,0.121,0.768,0.205,1.166,0.26c0.398,0.051,0.811,0.076,1.246,0.076
				c0.434,0,0.863-0.01,1.297-0.025c0.434-0.02,0.875-0.033,1.324-0.051c0.449-0.02,0.891-0.02,1.324,0
				c0.432,0.018,0.855,0.059,1.271,0.127c0.416,0.066,0.828,0.189,1.244,0.363c0.174,0.408,0.363,0.857,0.572,1.336
				c0.205,0.482,0.363,0.979,0.467,1.494c0.104,0.514,0.137,1.029,0.104,1.545c-0.035,0.516-0.207,1.031-0.518,1.543
				c-0.486,0.381-1.059,0.646-1.715,0.801c-0.656,0.156-1.348,0.25-2.076,0.283c-0.725,0.035-1.461,0.041-2.205,0.025
				C574.111,431.658,573.43,431.684,572.807,431.754z"/>
			<path fill="#101023" d="M602.443,431.855c-0.52-0.137-1.059-0.223-1.611-0.258c-0.553-0.033-1.113-0.053-1.684-0.053
				s-1.15,0.02-1.738,0.053c-0.59,0.035-1.17,0.051-1.742,0.051c-0.568,0-1.123-0.025-1.658-0.076
				c-0.539-0.051-1.047-0.164-1.533-0.334c-0.484-0.172-0.932-0.422-1.348-0.748s-0.797-0.748-1.141-1.264
				c-0.035-0.377-0.035-0.781,0-1.209c0.033-0.43,0.119-0.85,0.258-1.262s0.311-0.805,0.52-1.186
				c0.209-0.377,0.449-0.701,0.727-0.977c0.621-0.104,1.248-0.197,1.869-0.285c0.623-0.086,1.254-0.17,1.895-0.256
				c0.639-0.088,1.27-0.197,1.895-0.338c0.621-0.135,1.225-0.305,1.816-0.514c0.137-0.238,0.275-0.463,0.414-0.668
				c0.137-0.207,0.242-0.414,0.311-0.619c0.068-0.207,0.096-0.412,0.078-0.617c-0.018-0.207-0.111-0.43-0.285-0.672
				c-0.033-1.338-0.062-2.658-0.078-3.967c-0.018-1.303-0.01-2.691,0.025-4.17c0.035-1.27,0.068-2.551,0.104-3.838
				c0.033-1.289,0.053-2.584,0.053-3.889c0-1.307-0.061-2.609-0.182-3.916c-0.123-1.305-0.305-2.609-0.547-3.914
				c-0.381-0.273-0.805-0.439-1.27-0.49c-0.469-0.051-0.953-0.059-1.453-0.023c-0.504,0.033-1.012,0.096-1.531,0.18
				c-0.52,0.086-1.004,0.131-1.453,0.131c-0.035,0.172-0.07,0.309-0.105,0.41c-0.035,0.104-0.076,0.197-0.129,0.283
				s-0.096,0.189-0.131,0.309c-0.033,0.123-0.051,0.268-0.051,0.436c-0.244,0.586-0.398,1.195-0.469,1.83
				c-0.068,0.637-0.139,1.27-0.207,1.906c-0.068,0.635-0.154,1.279-0.262,1.93c-0.102,0.654-0.293,1.289-0.568,1.908
				c-0.348,0.447-0.822,0.824-1.428,1.133c-0.607,0.309-1.322,0.445-2.154,0.41c-0.381-0.033-0.719-0.143-1.012-0.334
				c-0.297-0.188-0.562-0.412-0.805-0.668c-0.244-0.26-0.461-0.543-0.65-0.85c-0.189-0.311-0.354-0.637-0.492-0.98
				c-0.035-0.584-0.076-1.186-0.129-1.801c-0.053-0.619-0.113-1.246-0.184-1.881c-0.068-0.635-0.129-1.289-0.184-1.957
				c-0.049-0.67-0.094-1.34-0.127-2.01c-0.033-0.668-0.055-1.338-0.055-2.006c0-0.672,0.045-1.34,0.133-2.012
				c0.084-0.668,0.195-1.338,0.336-2.008c0.139-0.67,0.328-1.312,0.57-1.932c0.172-0.273,0.416-0.438,0.727-0.49
				c0.311-0.051,0.648-0.074,1.012-0.074c0.365,0,0.754,0,1.17,0c0.414,0,0.777-0.053,1.09-0.156
				c0.275,0.068,0.578,0.088,0.908,0.053c0.326-0.033,0.656-0.061,0.986-0.078c0.326-0.016,0.639,0,0.934,0.055
				c0.293,0.049,0.51,0.213,0.646,0.486c0.105,0,0.184-0.025,0.234-0.076c0.053-0.053,0.104-0.111,0.156-0.182
				c0.053-0.066,0.104-0.143,0.156-0.229c0.051-0.086,0.111-0.166,0.182-0.234c0.863,0.033,1.746,0.033,2.646,0
				c0.898-0.033,1.797-0.051,2.701-0.051c0.896,0,1.771,0.051,2.619,0.156c0.848,0.102,1.635,0.307,2.363,0.615
				c0.066-0.068,0.119-0.143,0.152-0.23c0.035-0.088,0.062-0.17,0.08-0.256s0.041-0.176,0.076-0.262
				c0.035-0.084,0.086-0.127,0.156-0.127c0.553,0.102,1.098,0.162,1.637,0.18c0.535,0.02,1.098,0.061,1.686,0.129
				c1.281,0.035,2.553,0.025,3.816-0.025c1.262-0.051,2.508-0.078,3.736-0.078c1.227,0,2.457,0.07,3.686,0.207
				c1.227,0.139,2.447,0.432,3.658,0.877c0.104,0.48,0.141,0.979,0.104,1.494c-0.033,0.516-0.051,1.082-0.051,1.699
				c-0.035,1.203-0.035,2.414,0,3.633c0.033,1.219,0.023,2.439-0.025,3.656c-0.053,1.219-0.182,2.42-0.391,3.607
				c-0.207,1.184-0.586,2.361-1.141,3.525c-0.277,0.207-0.58,0.354-0.908,0.436c-0.33,0.088-0.684,0.141-1.062,0.158
				c-0.385,0.018-0.779,0.033-1.193,0.051c-0.416,0.018-0.797,0.061-1.145,0.127c-0.035-0.066-0.094-0.117-0.18-0.154
				c-0.086-0.031-0.176-0.059-0.26-0.074c-0.088-0.02-0.176-0.043-0.262-0.078s-0.146-0.104-0.182-0.205
				c-0.348-0.621-0.604-1.314-0.779-2.086c-0.172-0.773-0.301-1.58-0.389-2.422c-0.086-0.842-0.164-1.699-0.232-2.574
				c-0.07-0.879-0.172-1.727-0.312-2.551c-0.346-0.309-0.787-0.541-1.32-0.697c-0.537-0.15-1.1-0.229-1.688-0.229
				c-0.59,0-1.186,0.053-1.793,0.154c-0.604,0.102-1.135,0.238-1.582,0.412c-0.035,0.961-0.068,1.896-0.104,2.807
				s-0.051,1.812-0.051,2.705c0,0.891-0.012,1.795-0.027,2.703c-0.018,0.91-0.043,1.846-0.078,2.809c0.068,1.201,0.068,2.43,0,3.682
				s-0.096,2.498-0.078,3.732c0.018,1.236,0.104,2.477,0.262,3.709c0.154,1.238,0.459,2.441,0.908,3.607
				c0.863,0.238,1.799,0.412,2.801,0.514c1.004,0.102,2.01,0.172,3.012,0.207c0.139,0.102,0.287,0.205,0.439,0.309
				c0.156,0.102,0.312,0.197,0.469,0.283c0.154,0.086,0.303,0.189,0.441,0.309c0.137,0.119,0.26,0.266,0.363,0.436
				c0.275,0.311,0.457,0.662,0.543,1.057c0.088,0.395,0.131,0.807,0.131,1.236c0,0.428-0.053,0.859-0.156,1.289
				s-0.242,0.848-0.412,1.262c-0.418,0.41-0.867,0.756-1.352,1.029c-0.486,0.275-0.994,0.488-1.531,0.645
				c-0.537,0.154-1.098,0.266-1.686,0.334c-0.59,0.07-1.186,0.111-1.791,0.127c-0.605,0.02-1.221,0.027-1.844,0.027
				c-0.621,0-1.236-0.008-1.842-0.027c-0.605-0.016-1.203-0.016-1.791,0C603.514,431.744,602.961,431.785,602.443,431.855z"/>
		</g>
	</g>
</g>
</svg>
